<?xml version="1.0" encoding="UTF-8"?>
<!DOCTYPE svg PUBLIC "-//W3C//DTD SVG 1.1//EN" "http://www.w3.org/Graphics/SVG/1.1/DTD/svg11.dtd">
<svg xmlns="http://www.w3.org/2000/svg" version="1.1" width="1024px" height="1024px" style="shape-rendering:geometricPrecision; text-rendering:geometricPrecision; image-rendering:optimizeQuality; fill-rule:evenodd; clip-rule:evenodd" xmlns:xlink="http://www.w3.org/1999/xlink">
<g><path style="opacity:0.275" fill="#515862" d="M 495.5,149.5 C 494.791,150.404 493.791,150.737 492.5,150.5C 492.432,142.486 492.099,134.486 491.5,126.5C 454.231,117.849 416.565,115.016 378.5,118C 381.723,126.336 384.556,134.836 387,143.5C 397.167,159 407.333,174.5 417.5,190C 395.261,213.965 378.761,241.465 368,272.5C 367.304,275.478 366.804,278.478 366.5,281.5C 359.418,277.779 352.752,273.279 346.5,268C 332.619,259.225 318.286,251.225 303.5,244C 299.292,242.146 294.959,241.146 290.5,241C 285.699,244.799 281.199,248.966 277,253.5C 257.006,281.486 237.506,309.819 218.5,338.5C 227.573,344.731 236.24,351.564 244.5,359C 266.028,373.264 287.028,388.264 307.5,404C 305.288,406.921 303.455,410.088 302,413.5C 294.251,433.08 285.917,452.413 277,471.5C 261.403,508.855 246.237,546.355 231.5,584C 251.949,601.744 274.949,615.411 300.5,625C 320.137,629.28 339.804,633.28 359.5,637C 401.091,721.582 462.757,786.916 544.5,833C 605.617,796.334 656.784,748.834 698,690.5C 708.626,672.749 719.126,654.916 729.5,637C 754.086,634.854 778.086,629.854 801.5,622C 809.288,618.606 816.955,614.939 824.5,611C 836.904,602.476 849.238,593.976 861.5,585.5C 857.061,576.955 852.894,568.289 849,559.5C 844.2,546.1 839.2,532.767 834,519.5C 816.793,480.925 798.959,442.758 780.5,405C 802.341,388.163 825.007,372.496 848.5,358C 856.683,351.74 864.683,345.24 872.5,338.5C 856.42,316.008 840.587,293.341 825,270.5C 816.757,259.866 807.923,249.699 798.5,240C 795.43,240.015 792.43,240.682 789.5,242C 772.691,249.903 756.358,258.569 740.5,268C 734.355,272.644 728.355,277.477 722.5,282.5C 715.43,260.695 705.93,240.028 694,220.5C 686.276,210.951 678.776,201.284 671.5,191.5C 679.767,178.057 688.267,164.723 697,151.5C 700.81,143.4 703.81,135.067 706,126.5C 706.914,124.336 708.081,122.336 709.5,120.5C 707.78,119.066 705.78,118.233 703.5,118C 698.177,117.501 692.844,117.334 687.5,117.5C 682.344,116.834 677.011,116.501 671.5,116.5C 663.606,116.311 655.939,116.978 648.5,118.5C 631.154,120.407 613.821,122.407 596.5,124.5C 595.194,132.775 594.361,141.108 594,149.5C 593.23,150.598 592.397,150.598 591.5,149.5C 591.577,148.25 592.244,147.417 593.5,147C 592.612,141.272 592.278,135.606 592.5,130C 593.525,127.929 594.358,125.762 595,123.5C 597.071,122.475 599.238,121.642 601.5,121C 616.828,120.387 631.828,118.721 646.5,116C 668.167,115.333 689.833,115.333 711.5,116C 712.591,118.064 712.758,120.231 712,122.5C 708.911,128.5 706.578,134.834 705,141.5C 699.036,155.422 691.036,168.089 681,179.5C 679.014,183.638 676.848,187.638 674.5,191.5C 681.655,200.458 688.822,209.458 696,218.5C 698.735,223.633 701.735,228.633 705,233.5C 710.443,244.746 715.777,256.413 721,268.5C 721.498,271.482 721.665,274.482 721.5,277.5C 722.873,277.657 724.207,277.49 725.5,277C 731.976,270.934 738.976,265.601 746.5,261C 760.677,253.411 775.01,246.078 789.5,239C 793.5,238.333 797.5,238.333 801.5,239C 809.722,246.887 817.222,255.387 824,264.5C 841.786,288.777 858.952,313.444 875.5,338.5C 873.733,341.77 871.4,344.603 868.5,347C 841.105,365.763 813.771,384.597 786.5,403.5C 785.447,404.438 784.78,405.605 784.5,407C 791.467,420.07 797.3,433.57 802,447.5C 812.627,464.029 820.96,481.696 827,500.5C 834.193,513.221 840.026,526.554 844.5,540.5C 847.549,546.573 850.216,552.739 852.5,559C 852.167,559.333 851.833,559.667 851.5,560C 855.558,566.479 859.058,573.313 862,580.5C 862.821,583.554 862.655,586.554 861.5,589.5C 847.955,598.884 834.288,608.051 820.5,617C 814.651,619.426 808.984,622.093 803.5,625C 788.729,628.551 774.063,632.217 759.5,636C 750.696,637.868 741.696,638.868 732.5,639C 723.055,654.313 713.722,669.813 704.5,685.5C 696.211,696.58 688.377,707.913 681,719.5C 667.773,733.752 654.606,748.085 641.5,762.5C 629.27,773.109 617.27,783.942 605.5,795C 591.462,805.012 577.462,815.012 563.5,825C 558.408,828.424 553.075,831.424 547.5,834C 543.739,834.738 540.072,834.405 536.5,833C 488.765,803.594 446.932,767.427 411,724.5C 391.243,697.424 373.409,669.091 357.5,639.5C 340.072,635.654 322.405,632.154 304.5,629C 289.117,623.976 274.451,617.31 260.5,609C 250.741,601.706 240.907,594.54 231,587.5C 230.482,583.449 230.816,579.449 232,575.5C 242.268,547.061 253.934,519.061 267,491.5C 270.001,482.652 273.168,473.819 276.5,465C 285.765,445.136 294.765,425.136 303.5,405C 290.709,394.726 277.709,384.559 264.5,374.5C 250.28,366.079 236.946,356.579 224.5,346C 220.352,344.801 217.352,342.301 215.5,338.5C 224.677,326.435 232.844,313.768 240,300.5C 251.355,284.325 262.855,268.325 274.5,252.5C 278.728,247.103 283.728,242.603 289.5,239C 292.5,238.333 295.5,238.333 298.5,239C 322.172,249.247 344.005,262.413 364,278.5C 366.8,265.981 371.133,253.981 377,242.5C 384.991,229.352 393.158,216.352 401.5,203.5C 405.833,198.833 410.167,194.167 414.5,189.5C 404.085,174.267 393.918,158.933 384,143.5C 382.14,134.72 378.974,126.554 374.5,119C 375.337,117.989 375.67,116.822 375.5,115.5C 398.836,115.333 422.169,115.5 445.5,116C 460.389,118.221 475.389,120.721 490.5,123.5C 491.853,124.685 493.02,126.019 494,127.5C 494.171,135.011 494.671,142.345 495.5,149.5 Z"/></g>
<g><path style="opacity:0.227" fill="#4a515c" d="M 589.5,149.5 C 587.856,149.714 586.356,149.38 585,148.5C 578.335,127.656 564.002,116.989 542,116.5C 526.461,117.598 514.461,124.598 506,137.5C 504.534,141.029 503.534,144.695 503,148.5C 500.619,149.435 498.119,149.768 495.5,149.5C 496.79,148.065 498.456,147.065 500.5,146.5C 506.566,125.435 520.566,115.102 542.5,115.5C 563.002,113.883 576.836,122.549 584,141.5C 585.681,144.334 587.514,147.001 589.5,149.5 Z"/></g>
<g><path style="opacity:0.999" fill="#f9fafb" d="M 495.5,149.5 C 498.119,149.768 500.619,149.435 503,148.5C 503.534,144.695 504.534,141.029 506,137.5C 514.461,124.598 526.461,117.598 542,116.5C 564.002,116.989 578.335,127.656 585,148.5C 586.356,149.38 587.856,149.714 589.5,149.5C 590.167,149.5 590.833,149.5 591.5,149.5C 592.397,150.598 593.23,150.598 594,149.5C 594.361,141.108 595.194,132.775 596.5,124.5C 613.821,122.407 631.154,120.407 648.5,118.5C 661.484,117.701 674.484,117.367 687.5,117.5C 692.844,117.334 698.177,117.501 703.5,118C 705.78,118.233 707.78,119.066 709.5,120.5C 708.081,122.336 706.914,124.336 706,126.5C 703.81,135.067 700.81,143.4 697,151.5C 688.267,164.723 679.767,178.057 671.5,191.5C 678.776,201.284 686.276,210.951 694,220.5C 705.93,240.028 715.43,260.695 722.5,282.5C 728.355,277.477 734.355,272.644 740.5,268C 756.358,258.569 772.691,249.903 789.5,242C 792.43,240.682 795.43,240.015 798.5,240C 807.923,249.699 816.757,259.866 825,270.5C 840.587,293.341 856.42,316.008 872.5,338.5C 864.683,345.24 856.683,351.74 848.5,358C 825.007,372.496 802.341,388.163 780.5,405C 798.959,442.758 816.793,480.925 834,519.5C 839.2,532.767 844.2,546.1 849,559.5C 852.894,568.289 857.061,576.955 861.5,585.5C 849.238,593.976 836.904,602.476 824.5,611C 816.955,614.939 809.288,618.606 801.5,622C 778.086,629.854 754.086,634.854 729.5,637C 719.126,654.916 708.626,672.749 698,690.5C 656.784,748.834 605.617,796.334 544.5,833C 462.757,786.916 401.091,721.582 359.5,637C 339.804,633.28 320.137,629.28 300.5,625C 274.949,615.411 251.949,601.744 231.5,584C 246.237,546.355 261.403,508.855 277,471.5C 285.917,452.413 294.251,433.08 302,413.5C 303.455,410.088 305.288,406.921 307.5,404C 287.028,388.264 266.028,373.264 244.5,359C 236.24,351.564 227.573,344.731 218.5,338.5C 237.506,309.819 257.006,281.486 277,253.5C 281.199,248.966 285.699,244.799 290.5,241C 294.959,241.146 299.292,242.146 303.5,244C 318.286,251.225 332.619,259.225 346.5,268C 352.752,273.279 359.418,277.779 366.5,281.5C 366.804,278.478 367.304,275.478 368,272.5C 378.761,241.465 395.261,213.965 417.5,190C 407.333,174.5 397.167,159 387,143.5C 384.556,134.836 381.723,126.336 378.5,118C 416.565,115.016 454.231,117.849 491.5,126.5C 492.099,134.486 492.432,142.486 492.5,150.5C 493.791,150.737 494.791,150.404 495.5,149.5 Z"/></g>
<g><path style="opacity:1" fill="#f7f9fa" d="M 286.5,536.5 C 295.578,541.878 304.912,547.045 314.5,552C 317.889,554.322 318.223,556.822 315.5,559.5C 313.379,559.675 311.379,559.341 309.5,558.5C 303.345,555.257 297.012,552.257 290.5,549.5C 289.67,555.472 289.17,561.472 289,567.5C 287.961,568.244 287.461,569.244 287.5,570.5C 286.167,570.5 284.833,570.5 283.5,570.5C 282.793,573.786 282.46,577.119 282.5,580.5C 281.167,580.5 279.833,580.5 278.5,580.5C 274.561,578.554 270.894,576.221 267.5,573.5C 269.731,569.708 271.398,565.708 272.5,561.5C 275.109,552.672 278.109,544.005 281.5,535.5C 283.216,535.629 284.883,535.962 286.5,536.5 Z"/></g>
<g><path style="opacity:1" fill="#f6f8f8" d="M 803.5,585.5 C 802.957,585.44 802.624,585.107 802.5,584.5C 805.321,578.017 804.821,571.684 801,565.5C 800.501,560.511 800.334,555.511 800.5,550.5C 794.644,552.092 788.977,554.258 783.5,557C 780.138,558.343 777.138,560.176 774.5,562.5C 774.125,560.302 773.458,558.302 772.5,556.5C 772.561,554.408 773.561,552.908 775.5,552C 786.736,546.044 798.069,540.711 809.5,536C 814.299,548.729 819.299,561.396 824.5,574C 818.115,578.861 811.115,582.694 803.5,585.5 Z"/></g>
<g><path style="opacity:1" fill="#a8afb9" d="M 697.5,459.5 C 699.467,462.579 701.8,465.412 704.5,468C 704.835,469.164 704.835,470.497 704.5,472C 705.078,473.417 706.078,474.25 707.5,474.5C 710.98,483.757 712.48,493.424 712,503.5C 708.716,497.725 704.883,492.391 700.5,487.5C 699.497,492.168 699.663,496.835 701,501.5C 703.186,519.04 701.186,536.04 695,552.5C 693,549.833 691,547.167 689,544.5C 686.156,537.449 682.656,530.783 678.5,524.5C 675.132,536.301 671.298,547.968 667,559.5C 661.958,566.703 656.125,573.036 649.5,578.5C 649.5,574.167 649.5,569.833 649.5,565.5C 650.052,563.669 650.052,562.003 649.5,560.5C 650.611,559.389 651.278,558.055 651.5,556.5C 650.844,554.547 650.511,552.547 650.5,550.5C 651.458,550.047 652.292,549.381 653,548.5C 653.5,541.174 653.666,533.841 653.5,526.5C 660.22,529.454 663.886,527.454 664.5,520.5C 665.065,522.386 666.065,524.053 667.5,525.5C 668.333,524.5 669.167,523.5 670,522.5C 671.604,517.19 673.104,511.856 674.5,506.5C 679.493,512.331 684.326,518.331 689,524.5C 689.667,523.833 690.333,523.167 691,522.5C 692.899,513.509 692.899,504.509 691,495.5C 688.292,486.377 685.792,477.211 683.5,468C 683.833,467.167 684.167,466.333 684.5,465.5C 687.991,469.16 691.324,472.994 694.5,477C 696.134,477.494 697.801,477.66 699.5,477.5C 699.351,478.552 699.517,479.552 700,480.5C 701.588,476.691 701.922,472.691 701,468.5C 699.684,465.58 698.517,462.58 697.5,459.5 Z"/></g>
<g><path style="opacity:1" fill="#10141b" d="M 793.5,604.5 C 793.44,603.957 793.107,603.624 792.5,603.5C 790.332,605.455 787.998,606.121 785.5,605.5C 784.304,605.154 784.304,604.654 785.5,604C 784.207,603.51 782.873,603.343 781.5,603.5C 783.701,600.033 785.034,597.033 785.5,594.5C 791.818,592.008 797.818,589.008 803.5,585.5C 811.115,582.694 818.115,578.861 824.5,574C 819.299,561.396 814.299,548.729 809.5,536C 798.069,540.711 786.736,546.044 775.5,552C 773.561,552.908 772.561,554.408 772.5,556.5C 772.565,556.938 772.399,557.272 772,557.5C 771.667,556.833 771.333,556.167 771,555.5C 770,555.833 769,556.167 768,556.5C 767.5,556 767,555.5 766.5,555C 766.781,551.053 766.781,547.553 766.5,544.5C 766.5,543.5 766.5,542.5 766.5,541.5C 764.435,541.517 762.435,541.85 760.5,542.5C 761.92,540.916 764.253,539.75 767.5,539C 766.72,537.927 766.887,536.76 768,535.5C 769.313,536.287 770.48,535.954 771.5,534.5C 776.543,531.985 781.21,528.985 785.5,525.5C 790.68,522.412 795.68,519.078 800.5,515.5C 797.667,509.833 794.833,504.167 792,498.5C 790.116,491.744 787.449,485.41 784,479.5C 781.535,480.651 779.035,481.651 776.5,482.5C 774.533,482.739 772.699,482.406 771,481.5C 768.573,483.746 765.906,484.412 763,483.5C 762.51,482.207 762.343,480.873 762.5,479.5C 758.869,480.412 755.203,480.579 751.5,480C 752.5,479.667 753.5,479.333 754.5,479C 753.132,477.66 751.799,476.326 750.5,475C 750.667,474.5 750.833,474 751,473.5C 751.601,475.359 752.434,475.692 753.5,474.5C 755.858,472.471 758.192,470.471 760.5,468.5C 765.252,465.802 769.585,462.635 773.5,459C 769.532,448.764 765.365,438.597 761,428.5C 759.612,427.446 758.112,427.28 756.5,428C 751.198,430.651 745.864,433.318 740.5,436C 739.643,436.689 738.977,437.522 738.5,438.5C 739.456,440.075 740.123,441.742 740.5,443.5C 740.5,443.833 740.5,444.167 740.5,444.5C 740.607,446.379 740.107,446.712 739,445.5C 737.915,446.293 736.748,446.96 735.5,447.5C 734.692,445.577 734.192,443.577 734,441.5C 733.431,445.361 732.598,445.361 731.5,441.5C 730.818,442.243 730.151,442.909 729.5,443.5C 729.5,439.5 729.5,435.5 729.5,431.5C 729.5,431.167 729.5,430.833 729.5,430.5C 730.974,429.564 731.974,428.23 732.5,426.5C 733.82,415.125 730.486,405.125 722.5,396.5C 721.504,402.798 721.17,409.132 721.5,415.5C 720.986,421.822 720.653,428.155 720.5,434.5C 719.596,433.791 719.263,432.791 719.5,431.5C 716.788,431.263 714.288,431.263 712,431.5C 711.333,428.833 710.667,428.833 710,431.5C 709.193,427.551 708.693,427.551 708.5,431.5C 707.209,431.263 706.209,431.596 705.5,432.5C 698.139,420.957 690.139,409.79 681.5,399C 687.269,398.973 691.769,401.473 695,406.5C 695.189,396.071 692.356,386.571 686.5,378C 639.407,364.986 591.407,358.819 542.5,359.5C 510.007,360.069 477.674,362.569 445.5,367C 430.354,370.162 415.354,373.828 400.5,378C 397.95,386.986 394.617,395.652 390.5,404C 390.667,404.5 390.833,405 391,405.5C 394.416,403.208 397.916,401.041 401.5,399C 402.833,398.333 404.167,398.333 405.5,399C 395.05,411.389 386.216,424.889 379,439.5C 376.86,445.42 375.026,451.42 373.5,457.5C 377.323,455.227 380.989,452.061 384.5,448C 387.101,445.502 388.435,446.002 388.5,449.5C 385.004,459.995 381.337,470.328 377.5,480.5C 375.515,480.141 374.849,479.308 375.5,478C 373.895,476.64 372.395,475.14 371,473.5C 369.246,475.25 367.079,475.917 364.5,475.5C 364.5,472.833 364.5,470.167 364.5,467.5C 365.065,455.449 366.065,443.449 367.5,431.5C 366.455,419.138 365.955,406.804 366,394.5C 360.11,399.617 356.277,405.951 354.5,413.5C 353.698,412.048 353.198,410.382 353,408.5C 352.548,411.149 351.714,413.649 350.5,416C 347.854,416.497 345.187,416.664 342.5,416.5C 342.5,413.833 342.5,411.167 342.5,408.5C 340.5,408.5 338.5,408.5 336.5,408.5C 336.5,410.833 336.5,413.167 336.5,415.5C 337.552,415.351 338.552,415.517 339.5,416C 338.289,416.893 338.289,417.726 339.5,418.5C 340.736,419.246 342.07,419.579 343.5,419.5C 343.227,421.451 343.893,422.951 345.5,424C 345,424.167 344.5,424.333 344,424.5C 341.945,423.308 339.945,423.308 338,424.5C 335.887,422.309 333.387,420.642 330.5,419.5C 327.972,421.494 326.139,423.494 325,425.5C 324.333,426.167 324.333,426.833 325,427.5C 325.69,426.262 326.19,426.262 326.5,427.5C 321.721,437.065 318.054,447.065 315.5,457.5C 315.39,459.374 316.056,460.874 317.5,462C 320.723,464.062 324.057,465.896 327.5,467.5C 330.128,469.488 332.795,471.488 335.5,473.5C 336.611,474.66 337.611,475.993 338.5,477.5C 339.272,484.705 340.272,491.872 341.5,499C 340.268,503.091 339.601,507.258 339.5,511.5C 336.192,510.974 334.026,512.307 333,515.5C 332.502,512.183 332.335,508.85 332.5,505.5C 333.469,502.754 334.136,499.921 334.5,497C 334.646,494.966 333.98,493.299 332.5,492C 324.119,487.485 315.452,483.652 306.5,480.5C 303.679,482.791 301.846,485.791 301,489.5C 298.03,498.077 294.863,506.577 291.5,515C 291.743,515.902 292.077,516.735 292.5,517.5C 292.062,517.435 291.728,517.601 291.5,518C 293.994,520.423 293.994,522.756 291.5,525C 292.22,527.122 293.387,527.622 295,526.5C 295.667,528.833 295.667,531.167 295,533.5C 292.867,534.255 291.2,535.588 290,537.5C 289.667,536.833 289.333,536.167 289,535.5C 288.329,536.252 287.496,536.586 286.5,536.5C 284.883,535.962 283.216,535.629 281.5,535.5C 278.109,544.005 275.109,552.672 272.5,561.5C 271.868,558.638 270.868,555.804 269.5,553C 267.455,552.51 265.455,552.677 263.5,553.5C 266.985,542.877 271.151,532.544 276,522.5C 278.397,524.782 281.231,526.116 284.5,526.5C 285.332,522.503 283.832,519.836 280,518.5C 284.238,501.303 290.405,484.636 298.5,468.5C 298.833,468.167 299.167,467.833 299.5,467.5C 302.382,469.108 305.382,470.441 308.5,471.5C 310.921,469.824 311.088,467.824 309,465.5C 307.333,464.167 305.667,462.833 304,461.5C 303.333,459.5 303.333,457.5 304,455.5C 309.676,440.83 315.842,426.497 322.5,412.5C 326.09,414.132 329.757,415.466 333.5,416.5C 333.752,413.68 333.252,411.014 332,408.5C 324.569,399.066 316.402,390.232 307.5,382C 288.713,366.772 269.046,352.772 248.5,340C 246.773,338.611 245.439,336.944 244.5,335C 259.76,308.919 276.76,284.086 295.5,260.5C 315.976,269.837 335.31,281.004 353.5,294C 360.544,299.532 367.211,305.532 373.5,312C 374.635,312.749 375.635,312.583 376.5,311.5C 382.823,277.858 395.99,247.191 416,219.5C 422.262,211.234 429.262,203.568 437,196.5C 435.143,187.089 431.81,178.089 427,169.5C 421.909,162.32 416.576,155.32 411,148.5C 408.012,144.192 405.845,139.525 404.5,134.5C 415.191,134.457 425.857,134.957 436.5,136C 449.799,138.161 463.133,139.995 476.5,141.5C 476.082,152.745 477.416,163.745 480.5,174.5C 492.734,169.32 505.4,165.654 518.5,163.5C 517.388,149.763 523.388,140.596 536.5,136C 557.431,133.592 568.764,142.926 570.5,164C 583.558,167.347 596.558,170.847 609.5,174.5C 610.111,168 610.777,161.5 611.5,155C 611.118,150.498 610.785,145.998 610.5,141.5C 634.606,136.872 658.94,134.538 683.5,134.5C 682.182,140.142 680.015,145.475 677,150.5C 664.932,163.456 655.765,178.289 649.5,195C 672.542,217.093 689.708,243.26 701,273.5C 705.459,287.335 709.292,301.335 712.5,315.5C 735.964,291.902 763.13,273.569 794,260.5C 813.882,284.221 832.049,309.221 848.5,335.5C 846.376,337.121 844.376,338.954 842.5,341C 808.985,358.171 779.818,381.004 755,409.5C 754.503,411.81 754.337,414.143 754.5,416.5C 758.615,415.905 762.615,414.905 766.5,413.5C 772.676,429.358 779.009,445.191 785.5,461C 784.013,463.821 781.846,465.987 779,467.5C 778.146,469.607 778.812,470.941 781,471.5C 783.626,469.771 786.46,468.437 789.5,467.5C 790.167,467.833 790.833,468.167 791.5,468.5C 798.351,484.197 805.184,499.864 812,515.5C 812.667,516.833 812.667,518.167 812,519.5C 809.667,521.167 807.333,522.833 805,524.5C 804.517,525.448 804.351,526.448 804.5,527.5C 808.279,527.53 811.779,526.53 815,524.5C 815.772,524.645 816.439,524.978 817,525.5C 823.702,543.068 830.536,560.568 837.5,578C 836.617,581.222 834.617,583.555 831.5,585C 818.923,591.76 806.257,598.26 793.5,604.5 Z"/></g>
<g><path style="opacity:1" fill="#b2b9c4" d="M 395.5,495.5 C 395.124,504.235 395.624,512.902 397,521.5C 397.118,523.573 398.118,524.907 400,525.5C 401.412,524.314 402.579,522.981 403.5,521.5C 404.167,522.833 405.167,523.833 406.5,524.5C 404.886,532.727 401.386,540.061 396,546.5C 394.438,548.957 393.438,551.624 393,554.5C 389.739,543.027 387.572,531.36 386.5,519.5C 386.5,515.833 386.5,512.167 386.5,508.5C 389.566,508.724 392.066,510.057 394,512.5C 394.173,506.652 394.673,500.985 395.5,495.5 Z"/></g>
<g><path style="opacity:1" fill="#16191d" d="M 664.5,520.5 C 663.886,527.454 660.22,529.454 653.5,526.5C 642.754,522.643 631.754,519.476 620.5,517C 618.771,515.211 618.104,513.044 618.5,510.5C 635.037,509.138 650.37,512.471 664.5,520.5 Z"/></g>
<g><path style="opacity:1" fill="#12151b" d="M 427.5,528.5 C 426.176,529.85 425.176,529.683 424.5,528C 423.313,525.276 422.647,522.443 422.5,519.5C 425.403,517.352 428.736,515.852 432.5,515C 444.615,511.674 456.948,510.174 469.5,510.5C 469.739,512.467 469.406,514.301 468.5,516C 454.559,519.706 440.892,523.873 427.5,528.5 Z"/></g>
<g><path style="opacity:1" fill="#9aa3ad" d="M 327.5,499.5 C 329.022,500.191 330.022,501.358 330.5,503C 329.34,504.997 329.34,506.831 330.5,508.5C 327.648,517.203 323.981,525.536 319.5,533.5C 315.127,530.772 310.794,528.105 306.5,525.5C 307.239,525.631 307.906,525.464 308.5,525C 307.117,523.729 306.117,522.229 305.5,520.5C 308.85,515.782 312.183,511.116 315.5,506.5C 318.438,505.372 321.438,504.205 324.5,503C 324.167,502.667 323.833,502.333 323.5,502C 325.066,501.392 326.4,500.558 327.5,499.5 Z"/></g>
<g><path style="opacity:1" fill="#9da5af" d="M 785.5,525.5 C 781.21,528.985 776.543,531.985 771.5,534.5C 766.061,523.941 761.394,512.941 757.5,501.5C 764.28,498.944 770.614,495.611 776.5,491.5C 778.252,500.841 781.085,509.841 785,518.5C 785.126,521.063 785.293,523.396 785.5,525.5 Z"/></g>
<g><path style="opacity:1" fill="#868c96" d="M 327.5,499.5 C 326.4,500.558 325.066,501.392 323.5,502C 323.833,502.333 324.167,502.667 324.5,503C 321.438,504.205 318.438,505.372 315.5,506.5C 312.183,511.116 308.85,515.782 305.5,520.5C 307.184,511.096 309.184,501.763 311.5,492.5C 317.061,494.28 322.395,496.613 327.5,499.5 Z"/></g>
<g><path style="opacity:1" fill="#f6f8f9" d="M 332.5,505.5 C 331.599,506.29 330.932,507.29 330.5,508.5C 329.34,506.831 329.34,504.997 330.5,503C 330.022,501.358 329.022,500.191 327.5,499.5C 322.395,496.613 317.061,494.28 311.5,492.5C 309.184,501.763 307.184,511.096 305.5,520.5C 306.117,522.229 307.117,523.729 308.5,525C 307.906,525.464 307.239,525.631 306.5,525.5C 302.074,522.406 297.407,519.739 292.5,517.5C 292.077,516.735 291.743,515.902 291.5,515C 294.863,506.577 298.03,498.077 301,489.5C 301.846,485.791 303.679,482.791 306.5,480.5C 315.452,483.652 324.119,487.485 332.5,492C 333.98,493.299 334.646,494.966 334.5,497C 334.136,499.921 333.469,502.754 332.5,505.5 Z"/></g>
<g><path style="opacity:1" fill="#f6f8f8" d="M 785.5,525.5 C 785.293,523.396 785.126,521.063 785,518.5C 781.085,509.841 778.252,500.841 776.5,491.5C 770.614,495.611 764.28,498.944 757.5,501.5C 755.891,499.399 755.391,497.065 756,494.5C 762.65,490.095 769.483,486.095 776.5,482.5C 779.035,481.651 781.535,480.651 784,479.5C 787.449,485.41 790.116,491.744 792,498.5C 794.833,504.167 797.667,509.833 800.5,515.5C 795.68,519.078 790.68,522.412 785.5,525.5 Z"/></g>
<g><path style="opacity:1" fill="#8e9cac" d="M 395.5,495.5 C 394.673,500.985 394.173,506.652 394,512.5C 392.066,510.057 389.566,508.724 386.5,508.5C 386.5,512.167 386.5,515.833 386.5,519.5C 385.837,517.527 385.504,515.361 385.5,513C 386.253,504.306 387.253,495.639 388.5,487C 388.492,485.293 388.158,483.793 387.5,482.5C 391.764,475.072 397.431,469.239 404.5,465C 401.608,471.674 399.108,478.508 397,485.5C 395.957,488.757 395.457,492.09 395.5,495.5 Z"/></g>
<g><path style="opacity:1" fill="#a4aab2" d="M 760.5,468.5 C 758.192,470.471 755.858,472.471 753.5,474.5C 748.778,464.665 744.444,454.665 740.5,444.5C 740.5,444.167 740.5,443.833 740.5,443.5C 745.182,442.155 749.849,440.822 754.5,439.5C 755.148,446.945 757.314,453.945 761,460.5C 761.602,463.221 761.435,465.887 760.5,468.5 Z"/></g>
<g><path style="opacity:1" fill="#75777c" d="M 729.5,431.5 C 729.5,435.5 729.5,439.5 729.5,443.5C 730.702,450.982 730.702,458.316 729.5,465.5C 728.813,453.995 728.813,442.662 729.5,431.5 Z"/></g>
<g><path style="opacity:1" fill="#949ca8" d="M 346.5,445.5 C 343.566,455.337 339.899,464.67 335.5,473.5C 332.795,471.488 330.128,469.488 327.5,467.5C 327.938,467.565 328.272,467.399 328.5,467C 327.299,466.097 326.465,464.931 326,463.5C 325.577,453.925 327.743,444.925 332.5,436.5C 337.912,438.527 342.579,441.527 346.5,445.5 Z"/></g>
<g><path style="opacity:1" fill="#dfe1e4" d="M 729.5,430.5 C 729.5,430.833 729.5,431.167 729.5,431.5C 728.813,442.662 728.813,453.995 729.5,465.5C 727.66,476.198 725.494,486.865 723,497.5C 721.771,489.872 720.937,482.205 720.5,474.5C 722.167,474.5 723.833,474.5 725.5,474.5C 725.065,463.708 723.731,453.042 721.5,442.5C 721.171,436.794 721.505,431.128 722.5,425.5C 725.038,426.992 727.371,428.659 729.5,430.5 Z"/></g>
<g><path style="opacity:1" fill="#eff1f3" d="M 367.5,431.5 C 366.065,443.449 365.065,455.449 364.5,467.5C 363.837,469.042 363.17,470.709 362.5,472.5C 361.808,471.975 361.308,471.308 361,470.5C 359.191,456.894 358.191,443.227 358,429.5C 356.092,426.794 355.259,423.794 355.5,420.5C 355.335,417.482 355.502,414.482 356,411.5C 356.202,413.256 356.702,414.922 357.5,416.5C 358.292,414.535 358.959,412.535 359.5,410.5C 360.776,409.355 362.109,409.355 363.5,410.5C 364.192,409.975 364.692,409.308 365,408.5C 365.667,412.167 365.667,415.833 365,419.5C 363.757,418.664 362.59,418.997 361.5,420.5C 364.529,423.68 366.529,427.346 367.5,431.5 Z"/></g>
<g><path style="opacity:1" fill="#f4f6f7" d="M 760.5,468.5 C 761.435,465.887 761.602,463.221 761,460.5C 757.314,453.945 755.148,446.945 754.5,439.5C 749.849,440.822 745.182,442.155 740.5,443.5C 740.123,441.742 739.456,440.075 738.5,438.5C 738.977,437.522 739.643,436.689 740.5,436C 745.864,433.318 751.198,430.651 756.5,428C 758.112,427.28 759.612,427.446 761,428.5C 765.365,438.597 769.532,448.764 773.5,459C 769.585,462.635 765.252,465.802 760.5,468.5 Z"/></g>
<g><path style="opacity:1" fill="#babec0" d="M 732.5,426.5 C 731.974,428.23 730.974,429.564 729.5,430.5C 727.371,428.659 725.038,426.992 722.5,425.5C 721.505,431.128 721.171,436.794 721.5,442.5C 720.527,440.052 720.194,437.385 720.5,434.5C 720.653,428.155 720.986,421.822 721.5,415.5C 722.317,413.031 722.817,410.365 723,407.5C 723.49,408.793 723.657,410.127 723.5,411.5C 725.792,411.244 727.959,411.577 730,412.5C 731.321,417.06 732.154,421.727 732.5,426.5 Z"/></g>
<g><path style="opacity:1" fill="#f5f7f8" d="M 346.5,445.5 C 342.579,441.527 337.912,438.527 332.5,436.5C 327.743,444.925 325.577,453.925 326,463.5C 326.465,464.931 327.299,466.097 328.5,467C 328.272,467.399 327.938,467.565 327.5,467.5C 324.057,465.896 320.723,464.062 317.5,462C 316.056,460.874 315.39,459.374 315.5,457.5C 318.054,447.065 321.721,437.065 326.5,427.5C 327.151,426.909 327.818,426.243 328.5,425.5C 335.167,428.833 341.833,432.167 348.5,435.5C 349.693,439.145 349.026,442.478 346.5,445.5 Z"/></g>
<g><path style="opacity:1" fill="#c8cccf" d="M 367.5,431.5 C 366.529,427.346 364.529,423.68 361.5,420.5C 362.59,418.997 363.757,418.664 365,419.5C 365.667,415.833 365.667,412.167 365,408.5C 364.692,409.308 364.192,409.975 363.5,410.5C 362.109,409.355 360.776,409.355 359.5,410.5C 358.959,412.535 358.292,414.535 357.5,416.5C 356.702,414.922 356.202,413.256 356,411.5C 355.502,414.482 355.335,417.482 355.5,420.5C 354.532,418.393 354.198,416.059 354.5,413.5C 356.277,405.951 360.11,399.617 366,394.5C 365.955,406.804 366.455,419.138 367.5,431.5 Z"/></g>
<g><path style="opacity:1" fill="#95969a" d="M 732.5,426.5 C 732.154,421.727 731.321,417.06 730,412.5C 727.959,411.577 725.792,411.244 723.5,411.5C 723.657,410.127 723.49,408.793 723,407.5C 722.817,410.365 722.317,413.031 721.5,415.5C 721.17,409.132 721.504,402.798 722.5,396.5C 730.486,405.125 733.82,415.125 732.5,426.5 Z"/></g>
<g><path style="opacity:1" fill="#fbfcfd" d="M 590.5,427.5 C 593.412,434.332 597.079,440.666 601.5,446.5C 602.33,440.528 602.83,434.528 603,428.5C 604.945,429.863 607.112,430.697 609.5,431C 619.744,432.734 629.41,431.234 638.5,426.5C 658.829,423.444 675.662,429.777 689,445.5C 692.483,449.807 695.317,454.473 697.5,459.5C 698.517,462.58 699.684,465.58 701,468.5C 701.922,472.691 701.588,476.691 700,480.5C 699.517,479.552 699.351,478.552 699.5,477.5C 697.801,477.66 696.134,477.494 694.5,477C 691.324,472.994 687.991,469.16 684.5,465.5C 684.167,466.333 683.833,467.167 683.5,468C 685.792,477.211 688.292,486.377 691,495.5C 692.899,504.509 692.899,513.509 691,522.5C 690.333,523.167 689.667,523.833 689,524.5C 684.326,518.331 679.493,512.331 674.5,506.5C 673.104,511.856 671.604,517.19 670,522.5C 669.167,523.5 668.333,524.5 667.5,525.5C 666.065,524.053 665.065,522.386 664.5,520.5C 650.37,512.471 635.037,509.138 618.5,510.5C 618.104,513.044 618.771,515.211 620.5,517C 631.754,519.476 642.754,522.643 653.5,526.5C 653.666,533.841 653.5,541.174 653,548.5C 652.292,549.381 651.458,550.047 650.5,550.5C 649.222,550.218 648.222,549.551 647.5,548.5C 643.425,543.922 639.092,539.422 634.5,535C 632.99,534.15 631.49,533.317 630,532.5C 629.235,532.57 628.735,532.903 628.5,533.5C 627.94,547.266 620.94,556.432 607.5,561C 600.842,561.5 594.175,561.666 587.5,561.5C 577.981,559.573 569.314,555.74 561.5,550C 550.735,540.824 547.402,529.324 551.5,515.5C 562.398,508.765 572.231,500.765 581,491.5C 585.84,474.314 579.174,465.647 561,465.5C 546.5,466.473 532,466.64 517.5,466C 503.374,470.761 499.54,479.928 506,493.5C 515.69,501.358 525.523,509.024 535.5,516.5C 536.664,523.142 536.831,529.808 536,536.5C 529.902,546.921 521.069,554.088 509.5,558C 506.28,559.352 502.947,560.186 499.5,560.5C 490.197,561.32 481.197,560.153 472.5,557C 466.772,552.061 461.606,546.561 457,540.5C 456.505,538.527 456.338,536.527 456.5,534.5C 457.412,533.262 457.579,531.928 457,530.5C 449.624,535.709 443.457,542.042 438.5,549.5C 436.798,552.026 435.132,551.859 433.5,549C 431.926,543.632 431.093,538.132 431,532.5C 429.612,531.264 428.446,529.931 427.5,528.5C 440.892,523.873 454.559,519.706 468.5,516C 469.406,514.301 469.739,512.467 469.5,510.5C 456.948,510.174 444.615,511.674 432.5,515C 428.736,515.852 425.403,517.352 422.5,519.5C 421.835,521.369 421.169,523.369 420.5,525.5C 420.167,525.167 419.833,524.833 419.5,524.5C 416.557,517.726 414.391,510.726 413,503.5C 408.735,508.929 405.568,514.929 403.5,521.5C 402.579,522.981 401.412,524.314 400,525.5C 398.118,524.907 397.118,523.573 397,521.5C 395.624,512.902 395.124,504.235 395.5,495.5C 395.457,492.09 395.957,488.757 397,485.5C 399.108,478.508 401.608,471.674 404.5,465C 397.431,469.239 391.764,475.072 387.5,482.5C 383.008,488.807 379.008,495.474 375.5,502.5C 375.167,501 374.833,499.5 374.5,498C 375.309,492.123 376.309,486.29 377.5,480.5C 381.337,470.328 385.004,459.995 388.5,449.5C 389.147,450.274 389.48,451.274 389.5,452.5C 388.853,455.233 388.353,457.9 388,460.5C 399.822,435.335 419.655,423.669 447.5,425.5C 459.357,433.351 472.024,434.684 485.5,429.5C 484.628,435.191 484.628,440.858 485.5,446.5C 489.972,439.888 493.639,432.888 496.5,425.5C 516.314,404.298 539.981,398.798 567.5,409C 576.85,413.194 584.517,419.361 590.5,427.5 Z"/></g>
<g><path style="opacity:1" fill="#14171d" d="M 419.5,485.5 C 437.464,486.304 455.131,488.971 472.5,493.5C 472.167,495.5 471.833,497.5 471.5,499.5C 453.47,498.05 435.47,496.383 417.5,494.5C 417.405,491.303 418.072,488.303 419.5,485.5 Z"/></g>
<g><path style="opacity:1" fill="#15181d" d="M 651.5,485.5 C 657.545,485.303 663.545,485.637 669.5,486.5C 669.662,488.527 669.495,490.527 669,492.5C 668.25,493.126 667.416,493.626 666.5,494C 651.474,495.253 636.474,496.753 621.5,498.5C 619.5,498.167 617.5,497.833 615.5,497.5C 614.253,495.958 614.253,494.458 615.5,493C 627.47,489.732 639.47,487.232 651.5,485.5 Z"/></g>
<g><path style="opacity:1" fill="#b2b8c2" d="M 778.5,360.5 C 777.53,362.974 778.53,364.641 781.5,365.5C 769.044,375.553 758.044,387.053 748.5,400C 744.815,400.18 743.315,398.347 744,394.5C 754.04,381.626 765.54,370.293 778.5,360.5 Z"/></g>
<g><path style="opacity:1" fill="#9ba4ad" d="M 309.5,358.5 C 318.796,366.627 327.963,374.96 337,383.5C 339.667,386.833 342.333,390.167 345,393.5C 345.269,396.28 344.102,398.446 341.5,400C 340.833,400.667 340.167,400.667 339.5,400C 329.341,386.342 317.674,374.175 304.5,363.5C 308.172,363.817 309.838,362.151 309.5,358.5 Z"/></g>
<g><path style="opacity:1" fill="#9aa4ae" d="M 705.5,432.5 C 709.413,439.505 712.08,447.005 713.5,455C 713.333,456.167 713.167,457.333 713,458.5C 709.333,453.5 705,449.167 700,445.5C 699.333,447.5 699.333,449.5 700,451.5C 702.611,459.165 705.111,466.832 707.5,474.5C 706.078,474.25 705.078,473.417 704.5,472C 704.835,470.497 704.835,469.164 704.5,468C 701.8,465.412 699.467,462.579 697.5,459.5C 695.317,454.473 692.483,449.807 689,445.5C 675.662,429.777 658.829,423.444 638.5,426.5C 647.035,418.595 649.868,408.928 647,397.5C 651.504,395.08 656.337,394.08 661.5,394.5C 661.256,391.737 659.923,389.571 657.5,388C 645.626,380.859 632.959,378.526 619.5,381C 600.793,390.923 591.126,406.423 590.5,427.5C 584.517,419.361 576.85,413.194 567.5,409C 539.981,398.798 516.314,404.298 496.5,425.5C 495.139,406.608 486.472,392.108 470.5,382C 461.05,378.525 451.716,378.858 442.5,383C 436.635,385.426 431.302,388.593 426.5,392.5C 431.081,394.118 435.581,396.118 440,398.5C 440.333,404.167 440.667,409.833 441,415.5C 442.996,418.986 445.163,422.319 447.5,425.5C 419.655,423.669 399.822,435.335 388,460.5C 388.353,457.9 388.853,455.233 389.5,452.5C 389.48,451.274 389.147,450.274 388.5,449.5C 388.435,446.002 387.101,445.502 384.5,448C 380.989,452.061 377.323,455.227 373.5,457.5C 375.026,451.42 376.86,445.42 379,439.5C 386.216,424.889 395.05,411.389 405.5,399C 404.167,398.333 402.833,398.333 401.5,399C 397.916,401.041 394.416,403.208 391,405.5C 390.833,405 390.667,404.5 390.5,404C 394.617,395.652 397.95,386.986 400.5,378C 415.354,373.828 430.354,370.162 445.5,367C 477.674,362.569 510.007,360.069 542.5,359.5C 591.407,358.819 639.407,364.986 686.5,378C 692.356,386.571 695.189,396.071 695,406.5C 691.769,401.473 687.269,398.973 681.5,399C 690.139,409.79 698.139,420.957 705.5,432.5 Z"/></g>
<g><path style="opacity:1" fill="#10141b" d="M 638.5,426.5 C 629.41,431.234 619.744,432.734 609.5,431C 607.112,430.697 604.945,429.863 603,428.5C 602.83,434.528 602.33,440.528 601.5,446.5C 597.079,440.666 593.412,434.332 590.5,427.5C 591.126,406.423 600.793,390.923 619.5,381C 632.959,378.526 645.626,380.859 657.5,388C 659.923,389.571 661.256,391.737 661.5,394.5C 656.337,394.08 651.504,395.08 647,397.5C 649.868,408.928 647.035,418.595 638.5,426.5 Z"/></g>
<g><path style="opacity:1" fill="#f4f6f7" d="M 622.5,393.5 C 630.201,393.362 633.367,397.029 632,404.5C 629.774,408.861 626.274,410.361 621.5,409C 617.747,407.326 616.247,404.493 617,400.5C 618.666,398.004 620.5,395.671 622.5,393.5 Z"/></g>
<g><path style="opacity:1" fill="#0e1118" d="M 496.5,425.5 C 493.639,432.888 489.972,439.888 485.5,446.5C 484.628,440.858 484.628,435.191 485.5,429.5C 472.024,434.684 459.357,433.351 447.5,425.5C 445.163,422.319 442.996,418.986 441,415.5C 440.667,409.833 440.333,404.167 440,398.5C 435.581,396.118 431.081,394.118 426.5,392.5C 431.302,388.593 436.635,385.426 442.5,383C 451.716,378.858 461.05,378.525 470.5,382C 486.472,392.108 495.139,406.608 496.5,425.5 Z"/></g>
<g><path style="opacity:1" fill="#f1f3f4" d="M 460.5,393.5 C 467.503,393.339 471.003,396.672 471,403.5C 465.994,411.008 460.66,411.341 455,404.5C 454.176,399.482 456.009,395.815 460.5,393.5 Z"/></g>
<g><path style="opacity:1" fill="#a3a9ad" d="M 717.5,365.5 C 721.867,367.545 724.867,370.878 726.5,375.5C 725.277,376.614 723.944,376.781 722.5,376C 719.931,375.102 717.598,373.935 715.5,372.5C 717.564,372.238 718.897,371.071 719.5,369C 718.177,368.184 717.511,367.017 717.5,365.5 Z"/></g>
<g><path style="opacity:1" fill="#979ead" d="M 310.5,338.5 C 309.047,341.755 310.047,344.088 313.5,345.5C 316.363,350.234 320.196,354.234 325,357.5C 326.626,360.128 328.626,362.461 331,364.5C 331.667,365.167 331.667,365.833 331,366.5C 324.418,360.923 317.085,356.59 309,353.5C 307.97,353.836 307.47,354.503 307.5,355.5C 304.907,354.246 302.573,352.58 300.5,350.5C 303.852,346.429 307.185,342.429 310.5,338.5 Z"/></g>
<g><path style="opacity:1" fill="#252832" d="M 469.5,317.5 C 467.325,319.417 464.658,320.75 461.5,321.5C 462.441,321.489 463.108,321.989 463.5,323C 462.66,324.171 461.827,325.338 461,326.5C 460.664,331.532 460.164,336.532 459.5,341.5C 453.825,342.406 448.158,343.406 442.5,344.5C 443.589,342.883 445.256,342.05 447.5,342C 447.833,339 449.5,337.333 452.5,337C 451.5,336.667 450.5,336.333 449.5,336C 449.895,332.733 450.895,329.733 452.5,327C 450.359,325.692 448.359,324.192 446.5,322.5C 445.167,323.167 443.833,323.833 442.5,324.5C 441.537,324.03 441.537,323.363 442.5,322.5C 451.416,320.91 460.416,319.243 469.5,317.5 Z"/></g>
<g><path style="opacity:1" fill="#959fad" d="M 770.5,322.5 C 777.43,330.843 783.764,339.676 789.5,349C 788.87,350.31 787.87,351.144 786.5,351.5C 782.44,352.01 778.44,352.844 774.5,354C 770.167,357.167 765.833,360.333 761.5,363.5C 760.479,362.998 760.312,362.332 761,361.5C 766.771,356.568 771.604,350.902 775.5,344.5C 774.833,344.167 774.167,343.833 773.5,343.5C 765.308,346.769 758.308,351.769 752.5,358.5C 751.417,357.635 751.251,356.635 752,355.5C 758.372,348.297 764.872,341.297 771.5,334.5C 771.167,334.167 770.833,333.833 770.5,333.5C 760.822,338.008 752.155,344.008 744.5,351.5C 743.417,350.635 743.251,349.635 744,348.5C 745.385,347.449 746.385,346.116 747,344.5C 753.363,338.967 759.529,333.301 765.5,327.5C 766.133,324.866 767.8,323.2 770.5,322.5 Z"/></g>
<g><path style="opacity:1" fill="#24262f" d="M 622.5,318.5 C 632.767,319.322 642.767,320.989 652.5,323.5C 648.673,323.44 648.006,324.607 650.5,327C 652.313,326.954 653.979,327.12 655.5,327.5C 656.785,330.021 657.452,332.687 657.5,335.5C 658.5,335.5 659.5,335.5 660.5,335.5C 660.618,339.24 659.618,342.573 657.5,345.5C 659.527,345.338 661.527,345.505 663.5,346C 662.833,346.333 662.167,346.667 661.5,347C 662.737,347.232 663.737,347.732 664.5,348.5C 656.033,346.966 647.7,344.966 639.5,342.5C 639.121,339.458 637.788,336.958 635.5,335C 635.323,326.01 630.989,320.51 622.5,318.5 Z"/></g>
<g><path style="opacity:1" fill="#3c4757" d="M 275.5,329.5 C 277.937,331.433 280.271,333.6 282.5,336C 276.051,334.775 270.384,331.942 265.5,327.5C 265.369,326.624 265.702,325.957 266.5,325.5C 269.514,326.859 272.514,328.192 275.5,329.5 Z"/></g>
<g><path style="opacity:1" fill="#b1b7c0" d="M 350.5,307.5 C 361.229,315.723 371.229,324.89 380.5,335C 378.978,336.522 377.478,338.022 376,339.5C 365.26,328.265 353.427,318.265 340.5,309.5C 341.822,309.67 342.989,309.337 344,308.5C 344.483,309.448 344.649,310.448 344.5,311.5C 347.888,312.031 349.888,310.697 350.5,307.5 Z"/></g>
<g><path style="opacity:1" fill="#818996" d="M 339.5,309.5 C 339.062,309.435 338.728,309.601 338.5,310C 341.871,315.601 345.038,321.101 348,326.5C 344.752,324.793 341.585,322.96 338.5,321C 335.874,320.005 333.207,319.672 330.5,320C 335.983,326.317 341.649,332.483 347.5,338.5C 342.216,336.84 337.216,334.007 332.5,330C 329.857,328.564 327.19,328.398 324.5,329.5C 331.459,335.958 338.292,342.625 345,349.5C 345.788,351.165 346.122,352.831 346,354.5C 338.812,345.827 329.978,339.494 319.5,335.5C 319.351,336.552 319.517,337.552 320,338.5C 328.243,346.114 335.243,354.448 341,363.5C 333.463,355.287 324.796,348.621 315,343.5C 313.97,343.836 313.47,344.503 313.5,345.5C 310.047,344.088 309.047,341.755 310.5,338.5C 315.317,329.836 321.15,321.836 328,314.5C 329.442,311.95 330.608,309.284 331.5,306.5C 332.365,305.417 333.365,305.251 334.5,306C 336.233,307.189 337.9,308.356 339.5,309.5 Z"/></g>
<g><path style="opacity:1" fill="#646975" d="M 604.5,316.5 C 603.448,316.351 602.448,316.517 601.5,317C 604.167,317.333 606.833,317.667 609.5,318C 608.167,318.333 606.833,318.667 605.5,319C 609.519,321.16 613.353,320.994 617,318.5C 618.019,320.269 618.186,321.936 617.5,323.5C 618.5,324.167 619.5,324.833 620.5,325.5C 620.545,328.968 620.545,332.468 620.5,336C 622.439,336.908 623.439,338.408 623.5,340.5C 614.387,339.698 605.387,338.198 596.5,336C 593.981,329.419 592.648,322.586 592.5,315.5C 596.702,315.183 600.702,315.517 604.5,316.5 Z"/></g>
<g><path style="opacity:1" fill="#65707c" d="M 825.5,323.5 C 826.401,324.29 827.068,325.29 827.5,326.5C 821.148,329.427 814.981,332.76 809,336.5C 808.308,335.975 807.808,335.308 807.5,334.5C 810.895,331.098 814.562,328.098 818.5,325.5C 820.797,323.681 823.131,323.015 825.5,323.5 Z"/></g>
<g><path style="opacity:1" fill="#626975" d="M 505.5,314.5 C 503.723,315.6 501.723,316.434 499.5,317C 500.362,319.734 501.195,319.901 502,317.5C 502.333,317.833 502.667,318.167 503,318.5C 502.928,323.76 503.928,328.76 506,333.5C 506.308,332.692 506.808,332.025 507.5,331.5C 508.425,332.641 509.259,332.641 510,331.5C 510.662,332.984 511.496,334.317 512.5,335.5C 500.766,336.272 489.099,337.605 477.5,339.5C 474.774,335.251 475.274,331.251 479,327.5C 479.494,325.866 479.66,324.199 479.5,322.5C 481.58,321.956 483.58,321.122 485.5,320C 484.892,319.13 484.059,318.63 483,318.5C 481.838,319.187 480.672,319.353 479.5,319C 480.949,317.883 482.616,317.216 484.5,317C 483.906,316.536 483.239,316.369 482.5,316.5C 489.923,314.745 497.589,314.079 505.5,314.5 Z"/></g>
<g><path style="opacity:1" fill="#acb5c0" d="M 759.5,320.5 C 761.5,320.5 763.5,320.5 765.5,320.5C 765.5,321.5 765.5,322.5 765.5,323.5C 756.668,328.417 748.334,334.084 740.5,340.5C 739.479,339.998 739.312,339.332 740,338.5C 746.696,332.634 753.196,326.634 759.5,320.5 Z"/></g>
<g><path style="opacity:1" fill="#b5bbc1" d="M 734.5,311.5 C 734.62,312.586 735.287,313.253 736.5,313.5C 738.518,312.183 740.518,312.183 742.5,313.5C 731.613,321.594 721.613,330.594 712.5,340.5C 711.16,339.312 710.493,337.812 710.5,336C 716.617,326.049 724.617,317.882 734.5,311.5 Z"/></g>
<g><path style="opacity:1" fill="#2d3a52" d="M 272.5,316.5 C 277.236,319.062 281.569,322.229 285.5,326C 284.072,326.579 282.738,326.412 281.5,325.5C 277.506,323.506 274.506,320.506 272.5,316.5 Z"/></g>
<g><path style="opacity:1" fill="#bed0e4" d="M 271.5,315.5 C 271.5,316.167 271.833,316.5 272.5,316.5C 274.506,320.506 277.506,323.506 281.5,325.5C 279.167,325.5 276.833,325.5 274.5,325.5C 274.433,326.959 274.766,328.292 275.5,329.5C 272.514,328.192 269.514,326.859 266.5,325.5C 265.702,325.957 265.369,326.624 265.5,327.5C 264.833,327.5 264.5,327.167 264.5,326.5C 266.087,322.317 268.421,318.65 271.5,315.5 Z"/></g>
<g><path style="opacity:1" fill="#a0abba" d="M 818.5,314.5 C 821.185,317.19 823.518,320.19 825.5,323.5C 823.131,323.015 820.797,323.681 818.5,325.5C 818.5,324.167 818.5,322.833 818.5,321.5C 816.435,321.517 814.435,321.85 812.5,322.5C 813.96,320.537 815.627,318.704 817.5,317C 817.272,316.601 816.938,316.435 816.5,316.5C 817.167,315.833 817.833,315.167 818.5,314.5 Z"/></g>
<g><path style="opacity:1" fill="#505560" d="M 604.5,316.5 C 610.589,316.775 616.589,317.442 622.5,318.5C 630.989,320.51 635.323,326.01 635.5,335C 637.788,336.958 639.121,339.458 639.5,342.5C 634.167,341.833 628.833,341.167 623.5,340.5C 623.439,338.408 622.439,336.908 620.5,336C 620.545,332.468 620.545,328.968 620.5,325.5C 619.5,324.833 618.5,324.167 617.5,323.5C 618.186,321.936 618.019,320.269 617,318.5C 613.353,320.994 609.519,321.16 605.5,319C 606.833,318.667 608.167,318.333 609.5,318C 606.833,317.667 604.167,317.333 601.5,317C 602.448,316.517 603.448,316.351 604.5,316.5 Z"/></g>
<g><path style="opacity:1" fill="#4e5461" d="M 482.5,316.5 C 483.239,316.369 483.906,316.536 484.5,317C 482.616,317.216 480.949,317.883 479.5,319C 480.672,319.353 481.838,319.187 483,318.5C 484.059,318.63 484.892,319.13 485.5,320C 483.58,321.122 481.58,321.956 479.5,322.5C 479.66,324.199 479.494,325.866 479,327.5C 475.274,331.251 474.774,335.251 477.5,339.5C 471.479,340.003 465.479,340.669 459.5,341.5C 460.164,336.532 460.664,331.532 461,326.5C 461.827,325.338 462.66,324.171 463.5,323C 463.108,321.989 462.441,321.489 461.5,321.5C 464.658,320.75 467.325,319.417 469.5,317.5C 473.842,317.261 478.176,316.927 482.5,316.5 Z"/></g>
<g><path style="opacity:1" fill="#222830" d="M 816.5,316.5 C 816.938,316.435 817.272,316.601 817.5,317C 815.627,318.704 813.96,320.537 812.5,322.5C 809.427,324.542 806.094,325.709 802.5,326C 806.676,322.081 811.343,318.914 816.5,316.5 Z"/></g>
<g><path style="opacity:1" fill="#7c858f" d="M 512.5,335.5 C 511.496,334.317 510.662,332.984 510,331.5C 509.259,332.641 508.425,332.641 507.5,331.5C 506.808,332.025 506.308,332.692 506,333.5C 503.928,328.76 502.928,323.76 503,318.5C 502.667,318.167 502.333,317.833 502,317.5C 501.195,319.901 500.362,319.734 499.5,317C 501.723,316.434 503.723,315.6 505.5,314.5C 511.501,313.211 517.501,313.211 523.5,314.5C 524.838,320.954 524.338,327.287 522,333.5C 518.883,334.304 515.716,334.97 512.5,335.5 Z"/></g>
<g><path style="opacity:1" fill="#7d8690" d="M 757.5,305.5 C 762.21,310.877 766.543,316.543 770.5,322.5C 767.8,323.2 766.133,324.866 765.5,327.5C 765.5,326.167 765.5,324.833 765.5,323.5C 765.5,322.5 765.5,321.5 765.5,320.5C 763.5,320.5 761.5,320.5 759.5,320.5C 760.543,317.971 759.543,317.138 756.5,318C 749.713,320.035 743.547,323.201 738,327.5C 737.833,327.167 737.667,326.833 737.5,326.5C 742.564,321.606 747.064,316.273 751,310.5C 752.777,308.21 754.944,306.543 757.5,305.5 Z"/></g>
<g><path style="opacity:1" fill="#f5f7f8" d="M 652.5,323.5 C 642.767,320.989 632.767,319.322 622.5,318.5C 616.589,317.442 610.589,316.775 604.5,316.5C 600.702,315.517 596.702,315.183 592.5,315.5C 592.648,322.586 593.981,329.419 596.5,336C 605.387,338.198 614.387,339.698 623.5,340.5C 628.833,341.167 634.167,341.833 639.5,342.5C 647.7,344.966 656.033,346.966 664.5,348.5C 682.648,352.772 700.315,358.439 717.5,365.5C 717.511,367.017 718.177,368.184 719.5,369C 718.897,371.071 717.564,372.238 715.5,372.5C 651.455,349.91 585.455,340.743 517.5,345C 464.854,347.029 413.854,357.196 364.5,375.5C 363.386,374.277 363.219,372.944 364,371.5C 369.108,366.026 375.275,362.193 382.5,360C 402.105,353.265 422.105,348.099 442.5,344.5C 448.158,343.406 453.825,342.406 459.5,341.5C 465.479,340.669 471.479,340.003 477.5,339.5C 489.099,337.605 500.766,336.272 512.5,335.5C 515.716,334.97 518.883,334.304 522,333.5C 524.338,327.287 524.838,320.954 523.5,314.5C 517.501,313.211 511.501,313.211 505.5,314.5C 497.589,314.079 489.923,314.745 482.5,316.5C 478.176,316.927 473.842,317.261 469.5,317.5C 460.416,319.243 451.416,320.91 442.5,322.5C 426.255,325.149 410.255,328.815 394.5,333.5C 394.451,330.901 393.451,328.734 391.5,327C 451.334,307.697 512.667,300.364 575.5,305C 617.364,306.645 658.031,314.311 697.5,328C 694.965,328.928 693.965,330.762 694.5,333.5C 680.539,329.957 666.539,326.623 652.5,323.5 Z"/></g>
<g><path style="opacity:1" fill="#3b4048" d="M 793.5,283.5 C 795.814,284.179 796.147,285.512 794.5,287.5C 791.553,290.966 788.22,293.966 784.5,296.5C 782.255,297.635 779.922,298.135 777.5,298C 776.446,296.612 776.28,295.112 777,293.5C 782.306,289.767 787.806,286.434 793.5,283.5 Z"/></g>
<g><path style="opacity:1" fill="#bcc0c7" d="M 794.5,280.5 C 797.8,285.477 801.133,290.477 804.5,295.5C 803.222,295.782 802.222,296.449 801.5,297.5C 800.791,296.596 799.791,296.263 798.5,296.5C 802.301,294.188 801.634,292.855 796.5,292.5C 792.129,292.921 788.129,294.255 784.5,296.5C 788.22,293.966 791.553,290.966 794.5,287.5C 796.147,285.512 795.814,284.179 793.5,283.5C 794.11,282.609 794.443,281.609 794.5,280.5 Z"/></g>
<g><path style="opacity:1" fill="#b8bcc3" d="M 655.5,257.5 C 660.551,272.422 663.551,287.756 664.5,303.5C 661.833,302.5 659.167,301.5 656.5,300.5C 654.654,289.454 652.654,278.454 650.5,267.5C 651.158,266.602 651.824,265.602 652.5,264.5C 653.716,263.998 654.883,263.665 656,263.5C 655.865,261.575 655.698,259.575 655.5,257.5 Z"/></g>
<g><path style="opacity:1" fill="#c3c2c5" d="M 491.5,282.5 C 493.78,283.64 496.114,284.807 498.5,286C 500.607,287.264 501.607,289.097 501.5,291.5C 498.167,291.5 494.833,291.5 491.5,291.5C 491.5,288.5 491.5,285.5 491.5,282.5 Z"/></g>
<g><path style="opacity:1" fill="#515863" d="M 294.5,282.5 C 298.515,286.363 303.182,289.529 308.5,292C 309.406,293.699 309.739,295.533 309.5,297.5C 307.801,297.66 306.134,297.494 304.5,297C 299.667,294.311 295,291.478 290.5,288.5C 292.29,286.728 293.623,284.728 294.5,282.5 Z"/></g>
<g><path style="opacity:1" fill="#858a94" d="M 594.5,281.5 C 595.5,281.5 596.5,281.5 597.5,281.5C 597.5,284.833 597.5,288.167 597.5,291.5C 582.916,291.689 581.916,288.356 594.5,281.5 Z"/></g>
<g><path style="opacity:1" fill="#f7f9fa" d="M 350.5,307.5 C 349.888,310.697 347.888,312.031 344.5,311.5C 344.649,310.448 344.483,309.448 344,308.5C 342.989,309.337 341.822,309.67 340.5,309.5C 340.167,309.5 339.833,309.5 339.5,309.5C 337.9,308.356 336.233,307.189 334.5,306C 333.365,305.251 332.365,305.417 331.5,306.5C 330.608,309.284 329.442,311.95 328,314.5C 321.15,321.836 315.317,329.836 310.5,338.5C 307.185,342.429 303.852,346.429 300.5,350.5C 302.573,352.58 304.907,354.246 307.5,355.5C 308.167,356.5 308.833,357.5 309.5,358.5C 309.838,362.151 308.172,363.817 304.5,363.5C 290.882,353.017 276.549,343.517 261.5,335C 259.789,333.867 259.289,332.367 260,330.5C 261.371,328.959 262.871,327.625 264.5,326.5C 264.5,327.167 264.833,327.5 265.5,327.5C 270.384,331.942 276.051,334.775 282.5,336C 280.271,333.6 277.937,331.433 275.5,329.5C 274.766,328.292 274.433,326.959 274.5,325.5C 276.833,325.5 279.167,325.5 281.5,325.5C 282.738,326.412 284.072,326.579 285.5,326C 281.569,322.229 277.236,319.062 272.5,316.5C 271.833,316.5 271.5,316.167 271.5,315.5C 271.841,312.484 273.007,309.818 275,307.5C 278.009,303.661 281.176,299.994 284.5,296.5C 288.96,301.063 294.293,304.063 300.5,305.5C 300.67,304.178 300.337,303.011 299.5,302C 295.013,300.397 290.846,298.23 287,295.5C 286.333,294.5 286.333,293.5 287,292.5C 288.376,291.295 289.542,289.962 290.5,288.5C 295,291.478 299.667,294.311 304.5,297C 306.134,297.494 307.801,297.66 309.5,297.5C 309.739,295.533 309.406,293.699 308.5,292C 303.182,289.529 298.515,286.363 294.5,282.5C 295.75,280.068 297.25,277.734 299,275.5C 317.454,284.299 334.62,294.966 350.5,307.5 Z"/></g>
<g><path style="opacity:1" fill="#101013" d="M 281.5,306.5 C 285.95,306.142 289.45,307.808 292,311.5C 293.023,316.344 291.189,318.511 286.5,318C 280.184,315.891 278.517,312.058 281.5,306.5 Z"/></g>
<g><path style="opacity:1" fill="#f7f8f9" d="M 794.5,280.5 C 794.443,281.609 794.11,282.609 793.5,283.5C 787.806,286.434 782.306,289.767 777,293.5C 776.28,295.112 776.446,296.612 777.5,298C 779.922,298.135 782.255,297.635 784.5,296.5C 788.129,294.255 792.129,292.921 796.5,292.5C 801.634,292.855 802.301,294.188 798.5,296.5C 795.065,298.053 791.732,299.886 788.5,302C 787.289,302.893 787.289,303.726 788.5,304.5C 793.342,302.915 797.675,300.582 801.5,297.5C 802.222,296.449 803.222,295.782 804.5,295.5C 810.679,300.684 815.345,307.018 818.5,314.5C 817.833,315.167 817.167,315.833 816.5,316.5C 811.343,318.914 806.676,322.081 802.5,326C 806.094,325.709 809.427,324.542 812.5,322.5C 814.435,321.85 816.435,321.517 818.5,321.5C 818.5,322.833 818.5,324.167 818.5,325.5C 814.562,328.098 810.895,331.098 807.5,334.5C 807.808,335.308 808.308,335.975 809,336.5C 814.981,332.76 821.148,329.427 827.5,326.5C 830.765,328.022 832.098,330.355 831.5,333.5C 814.499,343.666 797.832,354.332 781.5,365.5C 778.53,364.641 777.53,362.974 778.5,360.5C 781.167,357.5 783.833,354.5 786.5,351.5C 787.87,351.144 788.87,350.31 789.5,349C 783.764,339.676 777.43,330.843 770.5,322.5C 766.543,316.543 762.21,310.877 757.5,305.5C 757.631,304.761 757.464,304.094 757,303.5C 752.286,307.054 747.453,310.387 742.5,313.5C 740.518,312.183 738.518,312.183 736.5,313.5C 735.287,313.253 734.62,312.586 734.5,311.5C 739.723,306.211 745.39,301.377 751.5,297C 763.001,289.748 774.668,282.748 786.5,276C 791.063,273.685 793.729,275.185 794.5,280.5 Z"/></g>
<g><path style="opacity:1" fill="#111217" d="M 804.5,305.5 C 811.158,308.724 811.158,312.224 804.5,316C 801.923,317.25 799.257,317.584 796.5,317C 795.446,315.612 795.28,314.112 796,312.5C 799.023,310.302 801.856,307.969 804.5,305.5 Z"/></g>
<g><path style="opacity:1" fill="#1d1e23" d="M 798.5,296.5 C 799.791,296.263 800.791,296.596 801.5,297.5C 797.675,300.582 793.342,302.915 788.5,304.5C 787.289,303.726 787.289,302.893 788.5,302C 791.732,299.886 795.065,298.053 798.5,296.5 Z"/></g>
<g><path style="opacity:1" fill="#afb3b7" d="M 461.5,250.5 C 464.701,253.542 467.367,257.042 469.5,261C 467.219,272.411 465.553,283.911 464.5,295.5C 461.167,295.833 457.833,296.167 454.5,296.5C 455.961,281.012 458.294,265.678 461.5,250.5 Z"/></g>
<g><path style="opacity:1" fill="#f1f2f5" d="M 644.5,209.5 C 648.981,211.459 652.815,214.459 656,218.5C 677.711,246.264 691.544,277.597 697.5,312.5C 694.148,311.992 691.148,310.658 688.5,308.5C 681.8,273.441 667.3,242.108 645,214.5C 644.506,212.866 644.34,211.199 644.5,209.5 Z"/></g>
<g><path style="opacity:1" fill="#a0a9b4" d="M 623.5,251.5 C 625.761,254.366 627.261,257.699 628,261.5C 630.989,273.052 632.156,284.718 631.5,296.5C 628.916,295.607 626.249,295.274 623.5,295.5C 622.856,283.515 621.189,271.681 618.5,260C 620.045,257.073 621.712,254.24 623.5,251.5 Z"/></g>
<g><path style="opacity:1" fill="#f1f2f4" d="M 655.5,257.5 C 655.698,259.575 655.865,261.575 656,263.5C 654.883,263.665 653.716,263.998 652.5,264.5C 651.824,265.602 651.158,266.602 650.5,267.5C 646.939,254.982 642.105,242.982 636,231.5C 635.591,228.642 636.591,226.309 639,224.5C 646.625,234.417 652.125,245.417 655.5,257.5 Z"/></g>
<g><path style="opacity:1" fill="#f0f2f4" d="M 446.5,222.5 C 447.496,222.414 448.329,222.748 449,223.5C 449.837,225.838 450.67,228.172 451.5,230.5C 440.042,252.777 433.375,276.443 431.5,301.5C 428.171,301.998 425.005,302.998 422,304.5C 422.883,287.828 425.883,271.495 431,255.5C 435.889,244.313 441.056,233.313 446.5,222.5 Z"/></g>
<g><path style="opacity:1" fill="#f1f3f4" d="M 439.5,209.5 C 441.384,209.712 442.717,210.712 443.5,212.5C 420.355,240.802 405.855,273.136 400,309.5C 396.747,311.519 393.247,312.686 389.5,313C 394.782,281.944 406.282,253.444 424,227.5C 429.399,221.608 434.566,215.608 439.5,209.5 Z"/></g>
<g><path style="opacity:1" fill="#f9fafa" d="M 425.5,148.5 C 426.793,147.842 428.293,147.508 430,147.5C 440.892,148.899 451.726,150.566 462.5,152.5C 464.141,171.303 467.974,189.636 474,207.5C 484.147,231.986 501.647,248.486 526.5,257C 555.809,262.23 579.975,253.397 599,230.5C 609.494,216.502 616.494,200.836 620,183.5C 621.695,173.137 623.528,162.804 625.5,152.5C 638.375,149.765 651.375,148.265 664.5,148C 657.807,152.884 652.641,159.051 649,166.5C 641.781,182.271 635.115,198.271 629,214.5C 624.349,223.802 619.682,233.136 615,242.5C 590.505,279.773 556.672,291.939 513.5,279C 500.29,272.465 488.79,263.632 479,252.5C 464.073,228.744 452.407,203.41 444,176.5C 439.548,165.9 433.381,156.567 425.5,148.5 Z"/></g>
<g><path style="opacity:1" fill="#949ca6" d="M 556.5,212.5 C 557.203,222.214 558.203,232.047 559.5,242C 559.415,243.107 559.081,244.107 558.5,245C 548.246,247.839 537.912,248.172 527.5,246C 526.869,244.094 526.536,242.094 526.5,240C 526.913,233.323 527.579,226.823 528.5,220.5C 528.343,221.873 528.51,223.207 529,224.5C 530.399,223.773 531.899,223.273 533.5,223C 541.159,222.5 548.826,222.334 556.5,222.5C 556.5,219.167 556.5,215.833 556.5,212.5 Z"/></g>
<g><path style="opacity:1" fill="#9ea3ab" d="M 515.5,208.5 C 514.596,217.796 513.596,227.13 512.5,236.5C 510.692,236.509 509.025,236.009 507.5,235C 502.18,230.526 497.846,225.359 494.5,219.5C 497.698,214.277 501.031,209.11 504.5,204C 507.817,203.502 511.15,203.335 514.5,203.5C 514.216,205.415 514.549,207.081 515.5,208.5 Z"/></g>
<g><path style="opacity:1" fill="#8a8f96" d="M 590.5,221.5 C 586.855,227.145 582.188,231.812 576.5,235.5C 574.669,225.513 573.002,215.513 571.5,205.5C 574.543,202.756 577.877,202.256 581.5,204C 585.166,209.5 588.166,215.333 590.5,221.5 Z"/></g>
<g><path style="opacity:1" fill="#f2f4f5" d="M 590.5,221.5 C 588.166,215.333 585.166,209.5 581.5,204C 577.877,202.256 574.543,202.756 571.5,205.5C 569.847,196.539 567.18,187.872 563.5,179.5C 563.574,177.261 564.741,176.261 567,176.5C 574.466,179.623 580.466,184.623 585,191.5C 588.667,197.833 592.333,204.167 596,210.5C 595.797,214.905 593.964,218.572 590.5,221.5 Z"/></g>
<g><path style="opacity:1" fill="#edf0f3" d="M 592.5,182.5 C 597.027,184.681 601.694,186.681 606.5,188.5C 605.349,190.773 604.349,193.106 603.5,195.5C 599.115,191.701 595.448,187.368 592.5,182.5 Z"/></g>
<g><path style="opacity:1" fill="#e8eaec" d="M 491.5,183.5 C 492.978,183.238 494.311,183.571 495.5,184.5C 491.849,188.652 488.016,192.652 484,196.5C 482.443,193.706 482.11,190.706 483,187.5C 485.738,185.711 488.572,184.378 491.5,183.5 Z"/></g>
<g><path style="opacity:1" fill="#f8f9fa" d="M 556.5,212.5 C 556.5,215.833 556.5,219.167 556.5,222.5C 548.826,222.334 541.159,222.5 533.5,223C 531.899,223.273 530.399,223.773 529,224.5C 528.51,223.207 528.343,221.873 528.5,220.5C 528.832,207.511 530.998,194.844 535,182.5C 535.414,182.043 535.914,181.709 536.5,181.5C 541.333,183.243 546.333,183.91 551.5,183.5C 554.137,192.985 555.803,202.652 556.5,212.5 Z"/></g>
<g><path style="opacity:1" fill="#f4f5f7" d="M 515.5,208.5 C 514.549,207.081 514.216,205.415 514.5,203.5C 511.15,203.335 507.817,203.502 504.5,204C 501.031,209.11 497.698,214.277 494.5,219.5C 492.034,217.26 490.034,214.593 488.5,211.5C 494.923,199.831 502.923,189.331 512.5,180C 515.614,177.146 519.281,175.979 523.5,176.5C 520.212,186.984 517.546,197.651 515.5,208.5 Z"/></g>
<g><path style="opacity:1" fill="#8e969f" d="M 557.5,159.5 C 556.714,166.573 552.714,169.906 545.5,169.5C 541.027,169.841 537.027,168.675 533.5,166C 531.549,164.266 530.549,162.099 530.5,159.5C 538.424,155.235 546.757,154.402 555.5,157C 556.066,157.995 556.733,158.828 557.5,159.5 Z"/></g>
<g><path style="opacity:1" fill="#f3f5f7" d="M 557.5,159.5 C 556.733,158.828 556.066,157.995 555.5,157C 546.757,154.402 538.424,155.235 530.5,159.5C 535.27,146.957 543.27,144.457 554.5,152C 556.693,154.025 557.693,156.525 557.5,159.5 Z"/></g>
<g><path style="opacity:0.969" fill="#a1a4ab" d="M 687.5,117.5 C 674.484,117.367 661.484,117.701 648.5,118.5C 655.939,116.978 663.606,116.311 671.5,116.5C 677.011,116.501 682.344,116.834 687.5,117.5 Z"/></g>
<g><path style="opacity:1" fill="#1b1a20" d="M 647.5,548.5 C 645.97,550.847 643.97,551.014 641.5,549C 637.333,544.833 633.167,540.667 629,536.5C 628.517,535.552 628.351,534.552 628.5,533.5C 628.735,532.903 629.235,532.57 630,532.5C 631.49,533.317 632.99,534.15 634.5,535C 639.092,539.422 643.425,543.922 647.5,548.5 Z"/></g>
<g><path style="opacity:1" fill="#363b41" d="M 456.5,534.5 C 454.284,535.203 452.451,536.536 451,538.5C 447.964,543.863 443.964,548.197 439,551.5C 438.536,550.906 438.369,550.239 438.5,549.5C 443.457,542.042 449.624,535.709 457,530.5C 457.579,531.928 457.412,533.262 456.5,534.5 Z"/></g>
<g><path style="opacity:1" fill="#eceef1" d="M 766.5,544.5 C 749.42,552.859 731.42,558.192 712.5,560.5C 712.137,558.089 713.137,556.589 715.5,556C 730.937,552.573 745.937,548.073 760.5,542.5C 762.435,541.85 764.435,541.517 766.5,541.5C 766.5,542.5 766.5,543.5 766.5,544.5 Z"/></g>
<g><path style="opacity:1" fill="#12171e" d="M 720.5,434.5 C 720.194,437.385 720.527,440.052 721.5,442.5C 723.731,453.042 725.065,463.708 725.5,474.5C 723.833,474.5 722.167,474.5 720.5,474.5C 720.937,482.205 721.771,489.872 723,497.5C 725.494,486.865 727.66,476.198 729.5,465.5C 730.702,458.316 730.702,450.982 729.5,443.5C 730.151,442.909 730.818,442.243 731.5,441.5C 732.598,445.361 733.431,445.361 734,441.5C 734.192,443.577 734.692,445.577 735.5,447.5C 736.748,446.96 737.915,446.293 739,445.5C 740.107,446.712 740.607,446.379 740.5,444.5C 744.444,454.665 748.778,464.665 753.5,474.5C 752.434,475.692 751.601,475.359 751,473.5C 750.833,474 750.667,474.5 750.5,475C 751.799,476.326 753.132,477.66 754.5,479C 753.5,479.333 752.5,479.667 751.5,480C 755.203,480.579 758.869,480.412 762.5,479.5C 762.343,480.873 762.51,482.207 763,483.5C 765.906,484.412 768.573,483.746 771,481.5C 772.699,482.406 774.533,482.739 776.5,482.5C 769.483,486.095 762.65,490.095 756,494.5C 755.391,497.065 755.891,499.399 757.5,501.5C 761.394,512.941 766.061,523.941 771.5,534.5C 770.48,535.954 769.313,536.287 768,535.5C 766.887,536.76 766.72,537.927 767.5,539C 764.253,539.75 761.92,540.916 760.5,542.5C 745.937,548.073 730.937,552.573 715.5,556C 713.137,556.589 712.137,558.089 712.5,560.5C 731.42,558.192 749.42,552.859 766.5,544.5C 766.781,547.553 766.781,551.053 766.5,555C 767,555.5 767.5,556 768,556.5C 769,556.167 770,555.833 771,555.5C 771.333,556.167 771.667,556.833 772,557.5C 772.399,557.272 772.565,556.938 772.5,556.5C 773.458,558.302 774.125,560.302 774.5,562.5C 778.167,573.167 781.833,583.833 785.5,594.5C 785.034,597.033 783.701,600.033 781.5,603.5C 782.873,603.343 784.207,603.51 785.5,604C 784.304,604.654 784.304,605.154 785.5,605.5C 787.998,606.121 790.332,605.455 792.5,603.5C 793.107,603.624 793.44,603.957 793.5,604.5C 790.654,606.983 787.32,608.649 783.5,609.5C 782.018,607.885 780.184,606.885 778,606.5C 756.802,613.008 735.302,618.341 713.5,622.5C 697.38,656.23 677.38,687.23 653.5,715.5C 651.83,715.249 650.33,714.582 649,713.5C 647.513,714.253 647.346,715.086 648.5,716C 645.697,717.112 644.697,718.946 645.5,721.5C 644.349,722.731 643.183,722.731 642,721.5C 641.5,722 641,722.5 640.5,723C 641.711,724.113 641.711,725.28 640.5,726.5C 638.314,727.221 636.147,727.887 634,728.5C 629.263,727.531 624.43,727.197 619.5,727.5C 619.664,730.187 619.497,732.854 619,735.5C 618.075,736.047 617.242,736.713 616.5,737.5C 618.396,738.466 620.396,738.799 622.5,738.5C 623.456,733.37 625.123,733.203 627.5,738C 626.62,739.356 626.286,740.856 626.5,742.5C 621.9,742.605 618.4,744.605 616,748.5C 615.699,745.493 615.865,742.493 616.5,739.5C 614.5,739.5 612.5,739.5 610.5,739.5C 610.328,743.971 609.494,744.304 608,740.5C 608.215,743.811 608.215,747.144 608,750.5C 607,751.167 606,751.833 605,752.5C 605.263,753.951 605.096,755.284 604.5,756.5C 602.091,757.722 600.258,757.055 599,754.5C 597.477,756.62 595.644,756.953 593.5,755.5C 590.972,756.517 590.972,757.684 593.5,759C 592.333,759.5 591.5,760.333 591,761.5C 589.284,760.448 588.284,761.114 588,763.5C 586.795,764.071 585.628,764.738 584.5,765.5C 584.709,766.086 585.043,766.586 585.5,767C 583.527,767.495 581.527,767.662 579.5,767.5C 579.628,769.655 579.128,771.655 578,773.5C 575.913,770.244 573.079,767.911 569.5,766.5C 570.791,765.473 570.791,764.473 569.5,763.5C 573.609,761.887 576.109,758.887 577,754.5C 577.859,730.459 574.192,707.126 566,684.5C 565.617,683.944 565.117,683.611 564.5,683.5C 564.52,681.857 563.853,680.524 562.5,679.5C 562.808,678.692 563.308,678.025 564,677.5C 564.741,678.641 565.575,678.641 566.5,677.5C 566.833,676.5 567.167,675.5 567.5,674.5C 567.387,670.336 567.387,666.169 567.5,662C 566.551,659.153 564.885,656.82 562.5,655C 564.631,653.353 566.631,653.686 568.5,656C 568.167,656.333 567.833,656.667 567.5,657C 568.448,657.483 569.448,657.649 570.5,657.5C 618.898,638.766 657.898,608.1 687.5,565.5C 684.366,563.246 682.2,560.246 681,556.5C 673.414,569.831 664.247,581.998 653.5,593C 651.807,593.847 650.14,594.68 648.5,595.5C 648.423,594.25 647.756,593.417 646.5,593C 649.898,592.712 651.898,590.879 652.5,587.5C 657.581,584.893 657.748,581.893 653,578.5C 652.147,580.603 650.98,580.603 649.5,578.5C 656.125,573.036 661.958,566.703 667,559.5C 671.298,547.968 675.132,536.301 678.5,524.5C 682.656,530.783 686.156,537.449 689,544.5C 691,547.167 693,549.833 695,552.5C 701.186,536.04 703.186,519.04 701,501.5C 699.663,496.835 699.497,492.168 700.5,487.5C 704.883,492.391 708.716,497.725 712,503.5C 712.48,493.424 710.98,483.757 707.5,474.5C 705.111,466.832 702.611,459.165 700,451.5C 699.333,449.5 699.333,447.5 700,445.5C 705,449.167 709.333,453.5 713,458.5C 713.167,457.333 713.333,456.167 713.5,455C 712.08,447.005 709.413,439.505 705.5,432.5C 706.209,431.596 707.209,431.263 708.5,431.5C 708.693,427.551 709.193,427.551 710,431.5C 710.667,428.833 711.333,428.833 712,431.5C 714.288,431.263 716.788,431.263 719.5,431.5C 719.263,432.791 719.596,433.791 720.5,434.5 Z"/></g>
<g><path style="opacity:1" fill="#11161e" d="M 354.5,413.5 C 354.198,416.059 354.532,418.393 355.5,420.5C 355.259,423.794 356.092,426.794 358,429.5C 358.191,443.227 359.191,456.894 361,470.5C 361.308,471.308 361.808,471.975 362.5,472.5C 363.17,470.709 363.837,469.042 364.5,467.5C 364.5,470.167 364.5,472.833 364.5,475.5C 367.079,475.917 369.246,475.25 371,473.5C 372.395,475.14 373.895,476.64 375.5,478C 374.849,479.308 375.515,480.141 377.5,480.5C 376.309,486.29 375.309,492.123 374.5,498C 374.833,499.5 375.167,501 375.5,502.5C 379.008,495.474 383.008,488.807 387.5,482.5C 388.158,483.793 388.492,485.293 388.5,487C 387.253,495.639 386.253,504.306 385.5,513C 385.504,515.361 385.837,517.527 386.5,519.5C 387.572,531.36 389.739,543.027 393,554.5C 393.438,551.624 394.438,548.957 396,546.5C 401.386,540.061 404.886,532.727 406.5,524.5C 409.262,530.845 411.428,537.512 413,544.5C 418.262,558.753 426.929,570.42 439,579.5C 439.175,574.981 439.675,570.647 440.5,566.5C 440.666,571.511 440.499,576.511 440,581.5C 438.175,580.429 437.008,581.096 436.5,583.5C 437.325,584.386 438.325,584.719 439.5,584.5C 439.671,587.797 439.005,588.131 437.5,585.5C 436.557,587.47 437.224,588.97 439.5,590C 439.167,590.333 438.833,590.667 438.5,591C 442.638,590.782 443.972,592.448 442.5,596C 443.328,596.915 444.328,597.581 445.5,598C 444.748,598.671 444.414,599.504 444.5,600.5C 441.194,599.18 438.194,597.347 435.5,595C 427.25,586.754 419.75,577.921 413,568.5C 410.726,564.286 408.726,559.953 407,555.5C 405.421,558.994 403.587,562.327 401.5,565.5C 407.47,574.795 413.803,583.795 420.5,592.5C 420.005,594.628 420.005,596.462 420.5,598C 421,598.5 421.5,599 422,599.5C 423.011,598.663 424.178,598.33 425.5,598.5C 425.896,601.044 425.229,603.211 423.5,605C 424.167,605.667 424.833,606.333 425.5,607C 423.58,612.197 422.913,617.697 423.5,623.5C 426.167,623.5 428.833,623.5 431.5,623.5C 431.5,626.167 431.5,628.833 431.5,631.5C 434.167,631.5 436.833,631.5 439.5,631.5C 439.5,636.833 439.5,642.167 439.5,647.5C 446.5,645.833 449.167,648.5 447.5,655.5C 454.5,653.833 457.167,656.5 455.5,663.5C 463.5,663.5 471.5,663.5 479.5,663.5C 479.051,661.023 479.717,659.023 481.5,657.5C 482.818,659.751 484.484,661.751 486.5,663.5C 487.491,667.445 487.824,671.445 487.5,675.5C 484.833,675.5 482.167,675.5 479.5,675.5C 480.154,679.586 478.988,682.919 476,685.5C 475.207,691.885 475.374,698.218 476.5,704.5C 476.047,706.565 475.047,708.232 473.5,709.5C 470.465,707.699 467.131,707.032 463.5,707.5C 463.5,706.167 463.5,704.833 463.5,703.5C 462.022,703.762 460.689,703.429 459.5,702.5C 458.833,701.167 457.833,700.167 456.5,699.5C 455.571,698.311 455.238,696.978 455.5,695.5C 454.022,695.762 452.689,695.429 451.5,694.5C 450.833,693.167 449.833,692.167 448.5,691.5C 447.38,692.833 446.047,693.333 444.5,693C 443.971,690.571 442.637,688.738 440.5,687.5C 439.52,684.914 439.187,682.247 439.5,679.5C 436.833,679.5 434.167,679.5 431.5,679.5C 431.5,676.833 431.5,674.167 431.5,671.5C 430.167,671.5 428.833,671.5 427.5,671.5C 427.5,668.833 427.5,666.167 427.5,663.5C 426.167,663.5 424.833,663.5 423.5,663.5C 425.251,670.107 422.918,672.607 416.5,671C 415.409,668.936 415.242,666.769 416,664.5C 417.011,663.663 418.178,663.33 419.5,663.5C 419.5,660.833 419.5,658.167 419.5,655.5C 415.818,655.665 412.152,655.499 408.5,655C 407.409,652.936 407.242,650.769 408,648.5C 409.011,647.663 410.178,647.33 411.5,647.5C 411.74,644.421 411.407,641.421 410.5,638.5C 410.778,635.305 412.445,633.305 415.5,632.5C 412.914,631.52 410.247,631.187 407.5,631.5C 407.666,636.511 407.499,641.511 407,646.5C 404.936,647.591 402.769,647.758 400.5,647C 399.864,643.21 399.197,639.377 398.5,635.5C 397.646,634.478 396.646,633.645 395.5,633C 396.517,631.951 396.684,630.784 396,629.5C 394.823,627.824 393.323,626.491 391.5,625.5C 391.709,624.914 392.043,624.414 392.5,624C 397.489,623.501 402.489,623.334 407.5,623.5C 407.5,620.833 407.5,618.167 407.5,615.5C 405.143,615.663 402.81,615.497 400.5,615C 399.663,613.989 399.33,612.822 399.5,611.5C 391.493,611.334 383.493,611.5 375.5,612C 374.975,612.692 374.308,613.192 373.5,613.5C 371.833,611.5 370.167,609.5 368.5,607.5C 367.571,606.311 367.238,604.978 367.5,603.5C 359.5,603.5 351.5,603.5 343.5,603.5C 343.5,602.167 343.5,600.833 343.5,599.5C 340.833,599.5 338.167,599.5 335.5,599.5C 335.5,598.167 335.5,596.833 335.5,595.5C 327.248,595.184 319.081,595.518 311,596.5C 310.56,594.924 309.727,593.59 308.5,592.5C 309.672,590.177 309.672,587.844 308.5,585.5C 310.833,576.833 313.167,568.167 315.5,559.5C 318.223,556.822 317.889,554.322 314.5,552C 304.912,547.045 295.578,541.878 286.5,536.5C 287.496,536.586 288.329,536.252 289,535.5C 289.333,536.167 289.667,536.833 290,537.5C 291.2,535.588 292.867,534.255 295,533.5C 295.667,531.167 295.667,528.833 295,526.5C 293.387,527.622 292.22,527.122 291.5,525C 293.994,522.756 293.994,520.423 291.5,518C 291.728,517.601 292.062,517.435 292.5,517.5C 297.407,519.739 302.074,522.406 306.5,525.5C 310.794,528.105 315.127,530.772 319.5,533.5C 323.981,525.536 327.648,517.203 330.5,508.5C 330.932,507.29 331.599,506.29 332.5,505.5C 332.335,508.85 332.502,512.183 333,515.5C 334.026,512.307 336.192,510.974 339.5,511.5C 339.601,507.258 340.268,503.091 341.5,499C 340.272,491.872 339.272,484.705 338.5,477.5C 337.611,475.993 336.611,474.66 335.5,473.5C 339.899,464.67 343.566,455.337 346.5,445.5C 349.026,442.478 349.693,439.145 348.5,435.5C 341.833,432.167 335.167,428.833 328.5,425.5C 327.818,426.243 327.151,426.909 326.5,427.5C 326.19,426.262 325.69,426.262 325,427.5C 324.333,426.833 324.333,426.167 325,425.5C 326.139,423.494 327.972,421.494 330.5,419.5C 333.387,420.642 335.887,422.309 338,424.5C 339.945,423.308 341.945,423.308 344,424.5C 344.5,424.333 345,424.167 345.5,424C 343.893,422.951 343.227,421.451 343.5,419.5C 342.07,419.579 340.736,419.246 339.5,418.5C 338.289,417.726 338.289,416.893 339.5,416C 338.552,415.517 337.552,415.351 336.5,415.5C 336.5,413.167 336.5,410.833 336.5,408.5C 338.5,408.5 340.5,408.5 342.5,408.5C 342.5,411.167 342.5,413.833 342.5,416.5C 345.187,416.664 347.854,416.497 350.5,416C 351.714,413.649 352.548,411.149 353,408.5C 353.198,410.382 353.698,412.048 354.5,413.5 Z"/></g>
<g><path style="opacity:1" fill="#ebeef1" d="M 323.5,542.5 C 340.819,546.995 357.986,551.995 375,557.5C 375.483,558.448 375.649,559.448 375.5,560.5C 357.857,558.005 340.857,553.172 324.5,546C 323.663,544.989 323.33,543.822 323.5,542.5 Z"/></g>
<g><path style="opacity:1" fill="#b4bbc1" d="M 363.5,476.5 C 365.527,476.338 367.527,476.505 369.5,477C 367.319,480.872 365.819,485.039 365,489.5C 363.805,485.249 363.305,480.915 363.5,476.5 Z"/></g>
<g><path style="opacity:1" fill="#9da3ac" d="M 628.5,533.5 C 628.351,534.552 628.517,535.552 629,536.5C 633.167,540.667 637.333,544.833 641.5,549C 643.97,551.014 645.97,550.847 647.5,548.5C 648.222,549.551 649.222,550.218 650.5,550.5C 650.511,552.547 650.844,554.547 651.5,556.5C 651.278,558.055 650.611,559.389 649.5,560.5C 650.052,562.003 650.052,563.669 649.5,565.5C 648.732,564.737 648.232,563.737 648,562.5C 641.295,578.208 630.629,590.542 616,599.5C 618.495,591.668 620.828,583.668 623,575.5C 623.904,569.865 624.404,564.198 624.5,558.5C 620.187,558.548 616.187,559.715 612.5,562C 603.99,562.823 595.656,562.657 587.5,561.5C 594.175,561.666 600.842,561.5 607.5,561C 620.94,556.432 627.94,547.266 628.5,533.5 Z"/></g>
<g><path style="opacity:1" fill="#97a1ac" d="M 422.5,519.5 C 422.647,522.443 423.313,525.276 424.5,528C 425.176,529.683 426.176,529.85 427.5,528.5C 428.446,529.931 429.612,531.264 431,532.5C 431.093,538.132 431.926,543.632 433.5,549C 435.132,551.859 436.798,552.026 438.5,549.5C 438.369,550.239 438.536,550.906 439,551.5C 443.964,548.197 447.964,543.863 451,538.5C 452.451,536.536 454.284,535.203 456.5,534.5C 456.338,536.527 456.505,538.527 457,540.5C 461.606,546.561 466.772,552.061 472.5,557C 481.197,560.153 490.197,561.32 499.5,560.5C 487.391,562.399 475.391,561.399 463.5,557.5C 461.789,571.904 464.789,585.237 472.5,597.5C 472.167,597.833 471.833,598.167 471.5,598.5C 459.074,589.743 448.741,579.076 440.5,566.5C 439.675,570.647 439.175,574.981 439,579.5C 426.929,570.42 418.262,558.753 413,544.5C 411.428,537.512 409.262,530.845 406.5,524.5C 405.167,523.833 404.167,522.833 403.5,521.5C 405.568,514.929 408.735,508.929 413,503.5C 414.391,510.726 416.557,517.726 419.5,524.5C 419.833,524.833 420.167,525.167 420.5,525.5C 421.169,523.369 421.835,521.369 422.5,519.5 Z"/></g>
<g><path style="opacity:1" fill="#9ba4af" d="M 803.5,585.5 C 797.818,589.008 791.818,592.008 785.5,594.5C 781.833,583.833 778.167,573.167 774.5,562.5C 777.138,560.176 780.138,558.343 783.5,557C 788.977,554.258 794.644,552.092 800.5,550.5C 800.334,555.511 800.501,560.511 801,565.5C 804.821,571.684 805.321,578.017 802.5,584.5C 802.624,585.107 802.957,585.44 803.5,585.5 Z"/></g>
<g><path style="opacity:1" fill="#f5f6f7" d="M 570.5,657.5 C 570.126,653.79 568.459,650.79 565.5,648.5C 596.644,635.973 624.311,618.307 648.5,595.5C 650.14,594.68 651.807,593.847 653.5,593C 664.247,581.998 673.414,569.831 681,556.5C 682.2,560.246 684.366,563.246 687.5,565.5C 657.898,608.1 618.898,638.766 570.5,657.5 Z"/></g>
<g><path style="opacity:1" fill="#95a0ae" d="M 309.5,558.5 C 307.254,564.023 305.254,569.69 303.5,575.5C 300.048,576.425 297.215,578.425 295,581.5C 292.942,580.891 292.109,579.891 292.5,578.5C 291.522,578.977 290.689,579.643 290,580.5C 289,579.167 288,579.167 287,580.5C 286.253,577.076 286.42,573.743 287.5,570.5C 287.461,569.244 287.961,568.244 289,567.5C 289.17,561.472 289.67,555.472 290.5,549.5C 297.012,552.257 303.345,555.257 309.5,558.5 Z"/></g>
<g><path style="opacity:1" fill="#11151c" d="M 587.5,561.5 C 595.656,562.657 603.99,562.823 612.5,562C 616.187,559.715 620.187,558.548 624.5,558.5C 624.404,564.198 623.904,569.865 623,575.5C 620.828,583.668 618.495,591.668 616,599.5C 630.629,590.542 641.295,578.208 648,562.5C 648.232,563.737 648.732,564.737 649.5,565.5C 649.5,569.833 649.5,574.167 649.5,578.5C 650.98,580.603 652.147,580.603 653,578.5C 657.748,581.893 657.581,584.893 652.5,587.5C 651.898,590.879 649.898,592.712 646.5,593C 647.756,593.417 648.423,594.25 648.5,595.5C 624.311,618.307 596.644,635.973 565.5,648.5C 568.459,650.79 570.126,653.79 570.5,657.5C 569.448,657.649 568.448,657.483 567.5,657C 567.833,656.667 568.167,656.333 568.5,656C 566.631,653.686 564.631,653.353 562.5,655C 564.885,656.82 566.551,659.153 567.5,662C 567.387,666.169 567.387,670.336 567.5,674.5C 567.167,675.5 566.833,676.5 566.5,677.5C 565.575,678.641 564.741,678.641 564,677.5C 563.308,678.025 562.808,678.692 562.5,679.5C 563.853,680.524 564.52,681.857 564.5,683.5C 563.167,684.5 561.833,685.5 560.5,686.5C 559.596,685.791 559.263,684.791 559.5,683.5C 558.5,683.5 557.5,683.5 556.5,683.5C 556.33,682.178 556.663,681.011 557.5,680C 556.747,678.513 555.914,678.346 555,679.5C 554.517,678.552 554.351,677.552 554.5,676.5C 562.337,671.487 563.503,665.154 558,657.5C 547.038,646.392 536.871,647.059 527.5,659.5C 526.607,657.281 526.94,655.115 528.5,653C 526.189,653.155 523.856,653.155 521.5,653C 523.742,651.993 523.408,651.159 520.5,650.5C 520.611,649.883 520.944,649.383 521.5,649C 492.788,637.412 467.121,621.245 444.5,600.5C 444.414,599.504 444.748,598.671 445.5,598C 444.328,597.581 443.328,596.915 442.5,596C 443.972,592.448 442.638,590.782 438.5,591C 438.833,590.667 439.167,590.333 439.5,590C 437.224,588.97 436.557,587.47 437.5,585.5C 439.005,588.131 439.671,587.797 439.5,584.5C 438.325,584.719 437.325,584.386 436.5,583.5C 437.008,581.096 438.175,580.429 440,581.5C 440.499,576.511 440.666,571.511 440.5,566.5C 448.741,579.076 459.074,589.743 471.5,598.5C 471.833,598.167 472.167,597.833 472.5,597.5C 464.789,585.237 461.789,571.904 463.5,557.5C 475.391,561.399 487.391,562.399 499.5,560.5C 502.947,560.186 506.28,559.352 509.5,558C 521.069,554.088 529.902,546.921 536,536.5C 536.831,529.808 536.664,523.142 535.5,516.5C 525.523,509.024 515.69,501.358 506,493.5C 499.54,479.928 503.374,470.761 517.5,466C 532,466.64 546.5,466.473 561,465.5C 579.174,465.647 585.84,474.314 581,491.5C 572.231,500.765 562.398,508.765 551.5,515.5C 547.402,529.324 550.735,540.824 561.5,550C 569.314,555.74 577.981,559.573 587.5,561.5 Z"/></g>
<g><path style="opacity:1" fill="#f7fafb" d="M 547.5,554.5 C 551.07,558.449 555.403,561.116 560.5,562.5C 559.646,568.121 559.313,573.788 559.5,579.5C 555.167,579.5 550.833,579.5 546.5,579.5C 546.198,571.082 546.531,562.748 547.5,554.5 Z"/></g>
<g><path style="opacity:1" fill="#f1f4f5" d="M 538.5,554.5 C 540.117,555.589 540.95,557.256 541,559.5C 541.5,566.158 541.666,572.825 541.5,579.5C 536.833,579.5 532.167,579.5 527.5,579.5C 527.171,573.794 527.505,568.128 528.5,562.5C 532.634,560.775 535.967,558.108 538.5,554.5 Z"/></g>
<g><path style="opacity:1" fill="#f2f4f6" d="M 518.5,472.5 C 521.91,472.457 525.243,472.957 528.5,474C 532.977,475.66 537.477,477.16 542,478.5C 548.942,476.297 555.942,474.297 563,472.5C 567.483,472.824 570.983,474.824 573.5,478.5C 570.215,479.324 566.882,479.824 563.5,480C 556.607,483.03 549.773,486.197 543,489.5C 537.381,486.274 531.548,483.441 525.5,481C 521.23,479.925 516.897,479.425 512.5,479.5C 512.351,478.448 512.517,477.448 513,476.5C 514.812,475.023 516.645,473.69 518.5,472.5 Z"/></g>
<g><path style="opacity:1" fill="#a7b2bd" d="M 309.5,558.5 C 311.379,559.341 313.379,559.675 315.5,559.5C 313.167,568.167 310.833,576.833 308.5,585.5C 307.503,588.961 305.67,591.961 303,594.5C 294.38,590.445 286.213,585.779 278.5,580.5C 279.833,580.5 281.167,580.5 282.5,580.5C 282.46,577.119 282.793,573.786 283.5,570.5C 284.833,570.5 286.167,570.5 287.5,570.5C 286.42,573.743 286.253,577.076 287,580.5C 288,579.167 289,579.167 290,580.5C 290.689,579.643 291.522,578.977 292.5,578.5C 292.109,579.891 292.942,580.891 295,581.5C 297.215,578.425 300.048,576.425 303.5,575.5C 305.254,569.69 307.254,564.023 309.5,558.5 Z"/></g>
<g><path style="opacity:1" fill="#f4f5f7" d="M 444.5,600.5 C 467.121,621.245 492.788,637.412 521.5,649C 520.944,649.383 520.611,649.883 520.5,650.5C 518.182,652.185 517.182,654.519 517.5,657.5C 509.482,655.77 501.816,652.937 494.5,649C 466.828,634.169 442.161,615.335 420.5,592.5C 413.803,583.795 407.47,574.795 401.5,565.5C 403.587,562.327 405.421,558.994 407,555.5C 408.726,559.953 410.726,564.286 413,568.5C 419.75,577.921 427.25,586.754 435.5,595C 438.194,597.347 441.194,599.18 444.5,600.5 Z"/></g>
<g><path style="opacity:1" fill="#151920" d="M 272.5,561.5 C 271.398,565.708 269.731,569.708 267.5,573.5C 270.894,576.221 274.561,578.554 278.5,580.5C 286.213,585.779 294.38,590.445 303,594.5C 305.67,591.961 307.503,588.961 308.5,585.5C 309.672,587.844 309.672,590.177 308.5,592.5C 309.727,593.59 310.56,594.924 311,596.5C 319.081,595.518 327.248,595.184 335.5,595.5C 335.5,596.833 335.5,598.167 335.5,599.5C 338.167,599.5 340.833,599.5 343.5,599.5C 343.5,600.833 343.5,602.167 343.5,603.5C 351.5,603.5 359.5,603.5 367.5,603.5C 367.238,604.978 367.571,606.311 368.5,607.5C 370.167,609.5 371.833,611.5 373.5,613.5C 374.308,613.192 374.975,612.692 375.5,612C 383.493,611.5 391.493,611.334 399.5,611.5C 399.33,612.822 399.663,613.989 400.5,615C 402.81,615.497 405.143,615.663 407.5,615.5C 407.5,618.167 407.5,620.833 407.5,623.5C 402.489,623.334 397.489,623.501 392.5,624C 392.043,624.414 391.709,624.914 391.5,625.5C 393.323,626.491 394.823,627.824 396,629.5C 396.684,630.784 396.517,631.951 395.5,633C 396.646,633.645 397.646,634.478 398.5,635.5C 399.197,639.377 399.864,643.21 400.5,647C 402.769,647.758 404.936,647.591 407,646.5C 407.499,641.511 407.666,636.511 407.5,631.5C 410.247,631.187 412.914,631.52 415.5,632.5C 412.445,633.305 410.778,635.305 410.5,638.5C 411.407,641.421 411.74,644.421 411.5,647.5C 410.178,647.33 409.011,647.663 408,648.5C 407.242,650.769 407.409,652.936 408.5,655C 412.152,655.499 415.818,655.665 419.5,655.5C 419.5,658.167 419.5,660.833 419.5,663.5C 418.178,663.33 417.011,663.663 416,664.5C 415.242,666.769 415.409,668.936 416.5,671C 422.918,672.607 425.251,670.107 423.5,663.5C 424.833,663.5 426.167,663.5 427.5,663.5C 427.5,666.167 427.5,668.833 427.5,671.5C 428.833,671.5 430.167,671.5 431.5,671.5C 431.5,674.167 431.5,676.833 431.5,679.5C 434.167,679.5 436.833,679.5 439.5,679.5C 439.187,682.247 439.52,684.914 440.5,687.5C 442.637,688.738 443.971,690.571 444.5,693C 446.047,693.333 447.38,692.833 448.5,691.5C 449.833,692.167 450.833,693.167 451.5,694.5C 452.689,695.429 454.022,695.762 455.5,695.5C 455.238,696.978 455.571,698.311 456.5,699.5C 457.833,700.167 458.833,701.167 459.5,702.5C 460.689,703.429 462.022,703.762 463.5,703.5C 463.5,704.833 463.5,706.167 463.5,707.5C 467.131,707.032 470.465,707.699 473.5,709.5C 475.047,708.232 476.047,706.565 476.5,704.5C 475.374,698.218 475.207,691.885 476,685.5C 478.988,682.919 480.154,679.586 479.5,675.5C 482.167,675.5 484.833,675.5 487.5,675.5C 487.824,671.445 487.491,667.445 486.5,663.5C 484.484,661.751 482.818,659.751 481.5,657.5C 479.717,659.023 479.051,661.023 479.5,663.5C 471.5,663.5 463.5,663.5 455.5,663.5C 457.167,656.5 454.5,653.833 447.5,655.5C 449.167,648.5 446.5,645.833 439.5,647.5C 439.5,642.167 439.5,636.833 439.5,631.5C 436.833,631.5 434.167,631.5 431.5,631.5C 431.5,628.833 431.5,626.167 431.5,623.5C 428.833,623.5 426.167,623.5 423.5,623.5C 422.913,617.697 423.58,612.197 425.5,607C 424.833,606.333 424.167,605.667 423.5,605C 425.229,603.211 425.896,601.044 425.5,598.5C 424.178,598.33 423.011,598.663 422,599.5C 421.5,599 421,598.5 420.5,598C 420.005,596.462 420.005,594.628 420.5,592.5C 442.161,615.335 466.828,634.169 494.5,649C 501.816,652.937 509.482,655.77 517.5,657.5C 517.182,654.519 518.182,652.185 520.5,650.5C 523.408,651.159 523.742,651.993 521.5,653C 523.856,653.155 526.189,653.155 528.5,653C 526.94,655.115 526.607,657.281 527.5,659.5C 525.734,671.918 531.234,678.584 544,679.5C 547.9,679.794 551.4,678.794 554.5,676.5C 554.351,677.552 554.517,678.552 555,679.5C 555.914,678.346 556.747,678.513 557.5,680C 556.663,681.011 556.33,682.178 556.5,683.5C 557.5,683.5 558.5,683.5 559.5,683.5C 559.263,684.791 559.596,685.791 560.5,686.5C 558.63,687.941 556.963,689.607 555.5,691.5C 558.842,702.362 561.676,713.362 564,724.5C 564.667,733.167 564.667,741.833 564,750.5C 554.141,759.408 555.975,763.742 569.5,763.5C 570.791,764.473 570.791,765.473 569.5,766.5C 573.079,767.911 575.913,770.244 578,773.5C 579.128,771.655 579.628,769.655 579.5,767.5C 581.527,767.662 583.527,767.495 585.5,767C 585.043,766.586 584.709,766.086 584.5,765.5C 585.628,764.738 586.795,764.071 588,763.5C 588.284,761.114 589.284,760.448 591,761.5C 591.5,760.333 592.333,759.5 593.5,759C 590.972,757.684 590.972,756.517 593.5,755.5C 595.644,756.953 597.477,756.62 599,754.5C 600.258,757.055 602.091,757.722 604.5,756.5C 605.096,755.284 605.263,753.951 605,752.5C 606,751.833 607,751.167 608,750.5C 608.215,747.144 608.215,743.811 608,740.5C 609.494,744.304 610.328,743.971 610.5,739.5C 612.5,739.5 614.5,739.5 616.5,739.5C 615.865,742.493 615.699,745.493 616,748.5C 618.4,744.605 621.9,742.605 626.5,742.5C 626.286,740.856 626.62,739.356 627.5,738C 625.123,733.203 623.456,733.37 622.5,738.5C 620.396,738.799 618.396,738.466 616.5,737.5C 617.242,736.713 618.075,736.047 619,735.5C 619.497,732.854 619.664,730.187 619.5,727.5C 624.43,727.197 629.263,727.531 634,728.5C 636.147,727.887 638.314,727.221 640.5,726.5C 641.711,725.28 641.711,724.113 640.5,723C 641,722.5 641.5,722 642,721.5C 643.183,722.731 644.349,722.731 645.5,721.5C 644.697,718.946 645.697,717.112 648.5,716C 647.346,715.086 647.513,714.253 649,713.5C 650.33,714.582 651.83,715.249 653.5,715.5C 644.434,726.74 634.768,737.573 624.5,748C 600.815,770.332 575.148,789.999 547.5,807C 545.305,808.373 542.971,808.706 540.5,808C 484.187,774.354 438.354,729.854 403,674.5C 392.156,658.154 382.323,641.154 373.5,623.5C 353.398,617.765 333.232,612.098 313,606.5C 311.244,607.896 309.744,609.563 308.5,611.5C 290.674,602.09 273.34,591.923 256.5,581C 255.426,580.261 254.759,579.261 254.5,578C 257.371,569.763 260.371,561.597 263.5,553.5C 265.455,552.677 267.455,552.51 269.5,553C 270.868,555.804 271.868,558.638 272.5,561.5 Z"/></g>
<g><path style="opacity:1" fill="#9aa2ac" d="M 517.5,574.5 C 509.988,577.675 502.321,580.675 494.5,583.5C 493.417,584.365 493.251,585.365 494,586.5C 506.998,606.749 525.498,615.915 549.5,614C 567.919,612.045 582.419,603.545 593,588.5C 594.009,586.975 594.509,585.308 594.5,583.5C 585.04,582.104 577.04,578.104 570.5,571.5C 570.369,570.624 570.702,569.957 571.5,569.5C 581.454,575.013 592.12,577.013 603.5,575.5C 598.896,605.605 581.563,623.438 551.5,629C 526.124,630.394 505.958,620.894 491,600.5C 486.428,592.705 483.595,584.371 482.5,575.5C 493.239,575.99 503.739,574.656 514,571.5C 515.908,571.715 517.074,572.715 517.5,574.5 Z"/></g>
<g><path style="opacity:1" fill="#fafbfc" d="M 570.5,571.5 C 577.04,578.104 585.04,582.104 594.5,583.5C 594.509,585.308 594.009,586.975 593,588.5C 582.419,603.545 567.919,612.045 549.5,614C 525.498,615.915 506.998,606.749 494,586.5C 493.251,585.365 493.417,584.365 494.5,583.5C 502.321,580.675 509.988,577.675 517.5,574.5C 519.42,580.184 520.754,586.017 521.5,592C 535.833,592.667 550.167,592.667 564.5,592C 565.667,591.5 566.5,590.667 567,589.5C 567.465,583.341 568.632,577.341 570.5,571.5 Z"/></g>
<g><path style="opacity:1" fill="#f7f9f9" d="M 554.5,676.5 C 551.4,678.794 547.9,679.794 544,679.5C 531.234,678.584 525.734,671.918 527.5,659.5C 536.871,647.059 547.038,646.392 558,657.5C 563.503,665.154 562.337,671.487 554.5,676.5 Z"/></g>
<g><path style="opacity:1" fill="#f6f7f8" d="M 522.5,682.5 C 524.671,684.802 527.338,686.635 530.5,688C 531.059,688.725 531.392,689.558 531.5,690.5C 524.985,709.981 522.485,729.981 524,750.5C 526.67,753.187 528.836,756.187 530.5,759.5C 525.729,765.552 520.562,765.885 515,760.5C 511.559,755.343 510.059,749.677 510.5,743.5C 511.177,722.424 515.177,702.091 522.5,682.5 Z"/></g>
<g><path style="opacity:1" fill="#f4f6f6" d="M 564.5,683.5 C 565.117,683.611 565.617,683.944 566,684.5C 574.192,707.126 577.859,730.459 577,754.5C 576.109,758.887 573.609,761.887 569.5,763.5C 555.975,763.742 554.141,759.408 564,750.5C 564.667,741.833 564.667,733.167 564,724.5C 561.676,713.362 558.842,702.362 555.5,691.5C 556.963,689.607 558.63,687.941 560.5,686.5C 561.833,685.5 563.167,684.5 564.5,683.5 Z"/></g>
<g><path style="opacity:1" fill="#3c424c" d="M 541.5,695.5 C 543.833,695.5 546.167,695.5 548.5,695.5C 550.951,709.71 552.285,724.043 552.5,738.5C 548.363,738.854 544.363,738.354 540.5,737C 541.135,723.308 541.468,709.475 541.5,695.5 Z"/></g>
</svg>
